<?xml version="1.0" encoding="UTF-8"?>
<svg width="14px" height="14px" viewBox="0 0 14 14" version="1.1" xmlns="http://www.w3.org/2000/svg" xmlns:xlink="http://www.w3.org/1999/xlink">
    <title>bell</title>
    <g id="Page-1" stroke="none" stroke-width="1" fill="none" fill-rule="evenodd">
        <g id="Home" transform="translate(-556.000000, -23.000000)" fill="#F48120" fill-rule="nonzero">
            <path d="M563.410156,24.51561 L563.410156,23.6952975 L562.589844,23.6952975 L562.589844,24.51561 L563.410156,24.51561 Z M569.34375,35.2070162 L568.605469,34.4960787 C568.605469,34.4960787 568.550781,34.4322767 568.441406,34.3046725 C568.332031,34.1770683 568.208984,33.999334 568.072266,33.7714694 C567.935547,33.5436048 567.8125,33.26561 567.703125,32.937485 C567.59375,32.60936 567.539062,32.2538912 567.539062,31.8710787 L567.539062,31.8710787 L567.539062,29.1640475 C567.539062,28.5260267 567.420573,27.9244642 567.183594,27.35936 C566.946615,26.7942558 566.623047,26.3020683 566.212891,25.8827975 C565.802734,25.4635267 565.319661,25.1308444 564.763672,24.8847506 C564.207682,24.6386569 563.619792,24.51561 563,24.51561 C562.380208,24.51561 561.792318,24.6386569 561.236328,24.8847506 C560.680339,25.1308444 560.197266,25.4635267 559.787109,25.8827975 C559.376953,26.3020683 559.053385,26.7942558 558.816406,27.35936 C558.579427,27.9244642 558.460938,28.5260267 558.460938,29.1640475 L558.460938,29.1640475 L558.460938,31.8710787 C558.460938,32.2538912 558.40625,32.6048027 558.296875,32.9238131 C558.1875,33.2428235 558.064453,33.5208183 557.927734,33.7577975 C557.791016,33.9947767 557.667969,34.1770683 557.558594,34.3046725 C557.449219,34.4322767 557.394531,34.5051933 557.394531,34.5234225 L557.394531,34.5234225 L556.683594,35.2070162 L569.34375,35.2070162 Z M567.484375,34.3867037 L558.515625,34.3867037 C558.606771,34.2408704 558.697917,34.0813652 558.789062,33.9081881 C558.880208,33.735011 558.96224,33.5390475 559.035156,33.3202975 C559.108073,33.1015475 559.167318,32.8691256 559.212891,32.6230319 C559.258464,32.3769381 559.28125,32.1262871 559.28125,31.8710787 L559.28125,31.8710787 L559.28125,29.1640475 C559.28125,28.6354017 559.38151,28.1386569 559.582031,27.6738131 C559.782552,27.2089694 560.051432,26.8033704 560.388672,26.4570162 C560.725911,26.1106621 561.117839,25.8372246 561.564453,25.6367037 C562.011068,25.4361829 562.489583,25.3359225 563,25.3359225 C563.510417,25.3359225 563.988932,25.4361829 564.435547,25.6367037 C564.882161,25.8372246 565.274089,26.1106621 565.611328,26.4570162 C565.948568,26.8033704 566.217448,27.2089694 566.417969,27.6738131 C566.61849,28.1386569 566.71875,28.6354017 566.71875,29.1640475 L566.71875,29.1640475 L566.71875,31.8710787 C566.71875,32.1445162 566.741536,32.3997246 566.787109,32.6367037 C566.832682,32.8736829 566.891927,33.1015475 566.964844,33.3202975 C567.03776,33.5390475 567.119792,33.735011 567.210938,33.9081881 C567.302083,34.0813652 567.393229,34.2408704 567.484375,34.3867037 L567.484375,34.3867037 Z M563,36.4648287 C563.164062,36.4648287 563.323568,36.4329277 563.478516,36.3691256 C563.633464,36.3053235 563.765625,36.218735 563.875,36.10936 C563.984375,35.999985 564.070964,35.8678235 564.134766,35.7128756 C564.198568,35.5579277 564.230469,35.3984225 564.230469,35.23436 L564.230469,35.23436 L563.410156,35.23436 C563.410156,35.2890475 563.401042,35.3391777 563.382812,35.3847506 C563.364583,35.4303235 563.33724,35.4713392 563.300781,35.5077975 C563.264323,35.5442558 563.21875,35.5761569 563.164062,35.6035006 C563.109375,35.6308444 563.054688,35.6445162 563,35.6445162 C562.945312,35.6445162 562.890625,35.6308444 562.835938,35.6035006 C562.78125,35.5761569 562.735677,35.5442558 562.699219,35.5077975 C562.66276,35.4713392 562.635417,35.4303235 562.617188,35.3847506 C562.598958,35.3391777 562.589844,35.2890475 562.589844,35.23436 L562.589844,35.23436 L561.769531,35.23436 C561.769531,35.3984225 561.801432,35.5579277 561.865234,35.7128756 C561.929036,35.8678235 562.015625,35.999985 562.125,36.10936 C562.234375,36.218735 562.366536,36.3053235 562.521484,36.3691256 C562.676432,36.4329277 562.835938,36.4648287 563,36.4648287 Z" id="bell"></path>
        </g>
    </g>
</svg>