<?xml version="1.0" encoding="UTF-8"?>
<svg width="48px" height="62px" viewBox="0 0 48 62" version="1.1" xmlns="http://www.w3.org/2000/svg" xmlns:xlink="http://www.w3.org/1999/xlink">
    <title>Recurso 1</title>
    <g id="Page-1" stroke="none" stroke-width="1" fill="none" fill-rule="evenodd">
        <g id="Home" transform="translate(-105.000000, -79.000000)">
            <g id="Recurso-1" transform="translate(105.000000, 79.000000)">
                <path d="M10.2524194,49.0171103 L20.7403501,49.0171103 C20.883003,49.0171064 20.9989433,49.13086 21,49.2718631 L21,51.743346 C20.9989526,51.884661 20.8833147,51.9989647 20.7403501,52 L10.2524194,52 C10.1819795,51.9975618 10.115516,51.9671277 10.068086,51.9155924 C10.0206559,51.8640571 9.99627364,51.7957824 10.0004629,51.7262357 L10.0004629,49.2547529 C10.0015196,49.1137498 10.1174598,49 10.2601127,49" id="Path" fill="#404041"></path>
                <path d="M21,49 C20.0242155,45.248523 19.015965,36.9286707 17.058985,34.6251645 C16.1102555,33.5102086 15.938907,33.3372616 15.1110233,32.2517435 L12.9628545,29.6961763 C12.0483947,28.4211525 9.88038548,25.1590786 7.9216018,25.8619056 C3.7912016,28.5186651 10.3439282,33.0263251 11.3485714,35.5763727 C9.70182233,35.2727956 8.06048425,32.5553206 6.42816452,30.4082026 C1.80355923,24.3237816 9.1985989,15.0435217 5.14936376,14.0573561 C2.4691128,13.4060452 2.00015907,18.473023 1.33280183,20.5741445 C-1.2644804,28.7284093 0.12073679,29.7734505 3.87417034,35.3629488 C4.64614033,36.5147019 5.24135084,37.4824689 5.91231542,38.435517 C6.77266515,39.6590247 7.27228125,40.0343564 8.05146591,41.4032131 C9.89120749,44.6321695 9.53768852,45.4049112 10.6343188,48.9981601 L21,49 Z" id="Path" fill="#F48120"></path>
                <path d="M36.6420007,35.5725812 C37.6558088,33.0206725 44.2022673,28.5221745 40.0820934,25.8580333 C38.0977714,25.1386416 35.1880339,29.4053152 33.0557898,32.030819 C32.2151588,33.0648296 31.9247263,33.4659226 30.9379771,34.6250448 C28.9734984,36.9340899 27.9687099,45.2963286 27,48.9632025 L27.1479222,49 L37.3599645,49 C40.1885252,39.5283157 38.7507937,43.3736576 44.1265023,35.3646752 C47.8786747,29.7751304 49.2640922,28.7282406 46.6682383,20.5757478 C45.9989806,18.472769 45.5299591,13.4075889 42.8421048,14.0570653 C38.7886763,15.0413993 46.1829814,24.3217364 41.5577073,30.4025282 C39.9233476,32.5496641 38.2817722,35.2671617 36.634785,35.5707414" id="Path" fill="#F48120"></path>
                <path d="M27.2599219,49.0171103 L37.7405314,49.0171103 C37.8830847,49.0171064 37.998944,49.13086 38,49.2718631 L38,51.743346 C37.9989533,51.884661 37.8833962,51.9989647 37.7405314,52 L27.2599219,52 C27.188183,51.9996012 27.1197629,51.9700548 27.0706969,51.9182854 C27.0216309,51.8665161 26.9962322,51.7970747 27.0004533,51.7262357 L27.0004533,49.2547529 C27.0015093,49.1137498 27.1173686,49 27.2599219,49" id="Path" fill="#404041"></path>
                <path d="M12.5061854,50 C12.7814967,50.0034159 13.0022465,50.2287657 12.9999827,50.5040967 C12.997719,50.7794278 12.7732936,51.0011172 12.4979634,51 C12.2226333,50.9988744 12.0000211,50.7753643 12,50.5000239 C12.0008177,50.3665908 12.0546078,50.2389479 12.1495366,50.1451765 C12.2444653,50.0514051 12.3727562,49.9991868 12.5061854,50" id="Path" fill="#F48120"></path>
                <path d="M35.5072163,50.000017 C35.7823841,50.0039891 36.002615,50.2295827 35.9999765,50.5047763 C35.9973381,50.7799699 35.7728223,51.0012992 35.4976289,51 C35.2224355,50.9986893 35.0000287,50.7752407 35,50.5000345 C35.0008169,50.3664206 35.0547487,50.2386196 35.1499009,50.1448179 C35.245053,50.0510162 35.3736091,49.9989193 35.5072163,50.000017" id="Path" fill="#F48120"></path>
                <path d="M40.6285924,15.7609325 L26.1475602,0.712094349 C26.090048,0.598340894 26.0160058,0.49448297 25.9280425,0.404180244 C25.6371874,0.0977896702 25.2237859,-0.0471251577 24.8138013,0.0135913338 C24.4038167,0.0743078252 24.0458117,0.333463786 23.8488704,0.712094349 L17.3258025,7.49362428 L17.3258025,3.52412919 C17.3258025,3.51388483 17.3178121,3.50558014 17.3079555,3.50558014 L13.8849065,3.50558014 C13.880018,3.50497581 13.8751327,3.50673486 13.8716516,3.51035289 C13.8681705,3.51397093 13.8664781,3.51904833 13.8670595,3.52412919 L13.8670595,9.92725865 C13.8670595,9.92725865 13.8670595,10.637687 13.875983,11.0772993 L9.36962287,15.7609325 C8.87679238,16.2731502 8.87679238,17.1036191 9.36962287,17.6158368 C9.86245336,18.1280544 10.6614895,18.1280544 11.15432,17.6158368 L25,3.2254896 L38.84568,17.6158368 C39.3385105,18.1280544 40.1375466,18.1280544 40.6303771,17.6158368 C41.1232076,17.1036191 41.1232076,16.2731502 40.6303771,15.7609325" id="Path" fill="#404041"></path>
                <rect id="Rectangle" fill="#404041" fill-rule="nonzero" x="20" y="15" width="4" height="6"></rect>
                <rect id="Rectangle" fill="#404041" fill-rule="nonzero" x="25" y="15" width="4" height="6"></rect>
                <rect id="Rectangle" fill="#404041" fill-rule="nonzero" x="20" y="21" width="4" height="6"></rect>
                <rect id="Rectangle" fill="#404041" fill-rule="nonzero" x="25" y="21" width="4" height="6"></rect>
                <path d="M43.6742187,56.4228282 L42.6865974,58.7881653 L44.672614,58.7881653 L43.6742187,56.4228282 Z M42.9846795,54.2072173 L44.4661114,54.2072173 L48,61.8196998 L45.9798655,61.8196998 L45.2795522,60.2063582 L42.1245511,60.2063582 L41.4475816,61.8196998 L39.472339,61.8196998 L42.9846795,54.2072173 Z M29.4776114,54.2072173 L32.1854894,54.2072173 L34.0565829,59.1750981 L34.0799266,59.1750981 L35.9617941,54.2072173 L38.6553068,54.2072173 L38.6553068,61.8196998 L36.8596317,61.8196998 L36.8596317,55.9820613 L36.8398793,55.9820613 L34.7048216,61.8196998 L33.3401085,61.8196998 L31.2858562,55.9820613 L31.2732865,55.9820613 L31.2732865,61.8196998 L29.4776114,61.8196998 L29.4776114,54.2072173 Z M26.9295484,56.1856216 C26.7550819,55.9860156 26.5330497,55.827555 26.2813097,55.7229845 C26.0011148,55.608473 25.69812,55.5511261 25.3924505,55.5547528 C24.7510502,55.5488933 24.1380095,55.8020443 23.709903,56.2495496 C23.4942016,56.4772943 23.3271738,56.7417171 23.217888,57.0284622 C22.9808431,57.6634654 22.9808431,58.3550401 23.217888,58.9900433 C23.3271528,59.2741786 23.4922023,59.5366504 23.7045159,59.7639089 C23.9077071,59.977518 24.1559405,60.1493625 24.43356,60.2686039 C24.7149743,60.3903672 25.0214225,60.4529555 25.3313976,60.4519764 C25.6705329,60.4578167 26.0058037,60.3837734 26.3064491,60.2366399 C26.5896927,60.0935406 26.8303884,59.8865424 27.0067624,59.6343706 L28.4989684,60.6774068 C28.1689902,61.1169313 27.7160415,61.4627018 27.1899213,61.6767029 C26.6768649,61.889174 26.122189,61.9991792 25.561244,61.9997077 C24.9627203,62.0059762 24.3678688,61.9113834 23.8050737,61.7204431 C23.2885692,61.5446771 22.8156776,61.2722141 22.4152212,60.9196604 C22.0197544,60.563265 21.708928,60.132764 21.5030183,59.6562407 C21.0673105,58.5898078 21.0673105,57.4101922 21.5030183,56.3437593 C21.708928,55.867236 22.0197544,55.436735 22.4152212,55.0803396 C22.8156776,54.7277859 23.2885692,54.4553229 23.8050737,54.2795569 C24.3678688,54.0886166 24.9627203,53.9940238 25.561244,54.0002923 C25.8019878,54.0013908 26.042225,54.0210846 26.279514,54.0591734 C26.5301882,54.0998501 26.7761233,54.1629452 27.0139451,54.2475929 C27.2597065,54.3356237 27.4930755,54.451439 27.7088714,54.5924678 C27.9345175,54.7391448 28.1354641,54.916632 28.3050355,55.1190329 L26.9295484,56.1856216 Z M16.475128,56.4228282 L15.4875067,58.7881653 L17.4735233,58.7881653 L16.475128,56.4228282 Z M15.7855888,54.2072173 L17.2670207,54.2072173 L20.8009093,61.8196998 L18.7807748,61.8196998 L18.0822572,60.2063582 L14.9326431,60.2063582 L14.2556736,61.8196998 L12.280431,61.8196998 L15.7855888,54.2072173 Z M9.69286315,54.2072173 L11.4885382,54.2072173 L11.4885382,61.8196998 L9.69286315,61.8196998 L9.69286315,54.2072173 Z M2.7956751,60.263557 L3.72403912,60.263557 C4.11255879,60.2659127 4.50004712,60.2258273 4.87865821,60.1441125 C5.2120527,60.0749725 5.52639955,59.9414723 5.80163521,59.7521327 C6.06696763,59.5636052 6.27802257,59.316152 6.41575609,59.0321012 C6.57509244,58.6879733 6.65172113,58.3152333 6.64021548,57.9402778 C6.6483802,57.6040954 6.57146214,57.2708792 6.41575609,56.9678988 C6.27277027,56.7029962 6.06700649,56.4722426 5.81420494,56.2932898 C5.54482391,56.1067968 5.24017478,55.9697966 4.91636739,55.8895338 C4.56553467,55.7985254 4.20299062,55.7532378 3.83896233,55.7549485 L2.7956751,55.7549485 L2.7956751,60.263557 Z M1,54.2071468 L3.69351265,54.2071468 C4.31784427,54.2046255 4.94017267,54.273551 5.54664935,54.4124599 C6.10037502,54.5331632 6.62211627,54.7581048 7.08015588,55.0736103 C7.51910267,55.387188 7.87184496,55.7943691 8.10907771,56.2613258 C8.38088403,56.8168683 8.5123782,57.4236232 8.49335218,58.0344875 C8.50668227,58.5950546 8.38065736,59.1508434 8.12523879,59.657923 C7.88571744,60.1139924 7.54321149,60.515815 7.12145641,60.8355446 C6.68792964,61.1602909 6.19339878,61.4062114 5.66336823,61.560623 C5.10301083,61.7270183 4.51836613,61.810456 3.93054176,61.8079795 L1.00538703,61.8079795 L1,54.2071468 Z" id="Shape" fill="#404041" fill-rule="nonzero"></path>
            </g>
        </g>
    </g>
</svg>