<?xml version="1.0" encoding="UTF-8"?>
<svg width="71px" height="92px" viewBox="0 0 71 92" version="1.1" xmlns="http://www.w3.org/2000/svg" xmlns:xlink="http://www.w3.org/1999/xlink">
    <title>Recurso 1</title>
    <g id="Page-1" stroke="none" stroke-width="1" fill="none" fill-rule="evenodd">
        <g id="Home" transform="translate(-106.000000, -3638.000000)">
            <g id="Recurso-1" transform="translate(106.000000, 3638.000000)">
                <path d="M15.3671555,73.0228137 L30.6223275,73.0228137 C30.8298226,73.0228085 30.998463,73.17448 31,73.3624842 L31,76.6577947 C30.9984765,76.8462147 30.8302759,76.9986196 30.6223275,77 L15.3671555,77 C15.2646975,76.996749 15.1680233,76.9561702 15.0990341,76.8874565 C15.0300449,76.8187427 14.9945798,76.7277099 15.0006733,76.634981 L15.0006733,73.3396705 C15.0022103,73.1516664 15.1708507,73 15.3783458,73" id="Path" fill="#FFFFFF"></path>
                <path d="M31,73 C29.5595562,67.4263771 28.0711864,55.0654536 25.1823111,51.6431015 C23.7818057,49.9865956 23.5288627,49.7296458 22.3067487,48.1168761 L19.1356423,44.3200334 C17.7857255,42.4257123 14.5853309,37.5792025 11.6937931,38.6234025 C5.59653569,42.5705882 15.2696083,49.267683 16.752653,53.0563251 C14.3217377,52.6052963 11.8988101,48.5679049 9.48919525,45.377901 C2.66239696,36.3381898 13.5788841,22.5503751 7.60144174,21.0852148 C3.6448808,20.1175529 2.95261576,27.6456341 1.96746936,30.7673004 C-1.86661392,42.8822081 0.1782305,44.4348407 5.71901335,52.7392382 C6.85858811,54.4504143 7.73723219,55.8882395 8.72770371,57.3041967 C9.9977438,59.1219795 10.7352723,59.6796152 11.8854973,61.7133452 C14.6013063,66.5106518 14.079445,67.6587252 15.6982801,72.9972665 L31,73 Z" id="Path" fill="#F48120"></path>
                <path d="M54.2334296,53.0506921 C55.7300035,49.2592849 65.3938231,42.575802 59.3116616,38.6176494 C56.3824245,37.5488389 52.0870977,43.8878968 48.9394992,47.7886453 C47.6985678,49.3248896 47.269834,49.9207993 45.8132043,51.6429238 C42.9132595,55.0735049 41.4300003,67.4974025 40,72.9453294 L40.2183613,73 L55.2932809,73 C59.4687753,58.9277834 57.3464098,64.6408628 65.2819795,52.7418031 C70.8209007,44.4373365 72.8660408,42.8819575 69.034066,30.7696825 C68.0461142,27.6452567 67.3537491,20.1198464 63.3859642,21.0847828 C57.4023316,22.5472218 68.3177344,36.3351512 61.4899489,45.3694705 C59.0773227,48.559501 56.6540447,52.596926 54.2227778,53.0479586" id="Path" fill="#F48120"></path>
                <path d="M40.3780683,73.0228137 L55.6225911,73.0228137 C55.8299414,73.0228085 55.9984641,73.17448 56,73.3624842 L56,76.6577947 C55.9984776,76.8462147 55.8303944,76.9986196 55.6225911,77 L40.3780683,77 C40.2737207,76.9994682 40.1742006,76.960073 40.1028319,76.8910473 C40.0314631,76.8220215 39.9945196,76.7294329 40.0006594,76.634981 L40.0006594,73.3396705 C40.0021953,73.1516664 40.170718,73 40.3780683,73" id="Path" fill="#FFFFFF"></path>
                <path d="M18.5061854,74 C18.7814967,74.0034159 19.0022465,74.2287657 18.9999827,74.5040967 C18.997719,74.7794278 18.7732936,75.0011172 18.4979634,75 C18.2226333,74.9988744 18.0000211,74.7753643 18,74.5000239 C18.0008177,74.3665908 18.0546078,74.2389479 18.1495366,74.1451765 C18.2444653,74.0514051 18.3727562,73.9991868 18.5061854,74" id="Path" fill="#F48120"></path>
                <path d="M52.5072163,74.000017 C52.7823841,74.0039891 53.002615,74.2295827 52.9999765,74.5047763 C52.9973381,74.7799699 52.7728223,75.0012992 52.4976289,75 C52.2224355,74.9986893 52.0000287,74.7752407 52,74.5000345 C52.0008169,74.3664206 52.0547487,74.2386196 52.1499009,74.1448179 C52.245053,74.0510162 52.3736091,73.9989193 52.5072163,74.000017" id="Path" fill="#F48120"></path>
                <path d="M60.4544951,23.6413988 L39.1854791,1.06814152 C39.101008,0.897511341 38.9922585,0.741724455 38.8630624,0.606270365 C38.4358691,0.146684505 37.8286855,-0.0706877365 37.2265206,0.0203870006 C36.6243558,0.111461738 36.0985359,0.500195679 35.8092784,1.06814152 L26.2285224,11.2404364 L26.2285224,5.28619378 C26.2285224,5.27082725 26.2167866,5.25837022 26.2023097,5.25837022 L21.1747064,5.25837022 C21.1675264,5.25746372 21.1603512,5.26010229 21.1552384,5.26552934 C21.1501255,5.27095639 21.1476397,5.27857249 21.1484937,5.28619378 L21.1484937,14.890888 C21.1484937,14.890888 21.1484937,15.9565305 21.1616001,16.6159489 L14.5428836,23.6413988 C13.8190388,24.4097253 13.8190388,25.6554286 14.5428836,26.4237551 C15.2667284,27.1920816 16.4403127,27.1920816 17.1641574,26.4237551 L37.5,4.83823441 L57.8358426,26.4237551 C58.5596873,27.1920816 59.7332716,27.1920816 60.4571164,26.4237551 C61.1809612,25.6554286 61.1809612,24.4097253 60.4571164,23.6413988" id="Path" fill="#FFFFFF"></path>
                <rect id="Rectangle" fill="#FFFFFF" fill-rule="nonzero" x="30" y="22" width="6" height="9"></rect>
                <rect id="Rectangle" fill="#FFFFFF" fill-rule="nonzero" x="37" y="22" width="6" height="9"></rect>
                <rect id="Rectangle" fill="#FFFFFF" fill-rule="nonzero" x="30" y="31" width="6" height="9"></rect>
                <rect id="Rectangle" fill="#FFFFFF" fill-rule="nonzero" x="37" y="31" width="6" height="9"></rect>
                <path d="M64.557347,83.6342423 L63.0864216,87.182248 L66.0443188,87.182248 L64.557347,83.6342423 Z M63.5303737,80.3108259 L65.7367617,80.3108259 L71,91.7295497 L67.9912891,91.7295497 L66.9482693,89.3095373 L62.2493314,89.3095373 L61.2410789,91.7295497 L58.2992282,91.7295497 L63.5303737,80.3108259 Z M43.4134637,80.3108259 L47.4464736,80.3108259 L50.2332085,87.7626472 L50.2679759,87.7626472 L53.0707572,80.3108259 L57.0823718,80.3108259 L57.0823718,91.7295497 L54.4079621,91.7295497 L54.4079621,82.9730919 L54.3785436,82.9730919 L51.1986704,91.7295497 L49.166119,91.7295497 L46.1065943,82.9730919 L46.0878735,82.9730919 L46.0878735,91.7295497 L43.4134637,91.7295497 L43.4134637,80.3108259 Z M39.6184764,83.2784323 C39.3586327,82.9790235 39.0279464,82.7413325 38.6530144,82.5844768 C38.2357028,82.4127095 37.784434,82.3266891 37.3291816,82.3321293 C36.3739045,82.3233399 35.4608652,82.7030665 34.8232597,83.3743244 C34.5020023,83.7159414 34.2532376,84.1125757 34.0904715,84.5426933 C33.7374258,85.4951981 33.7374258,86.5325601 34.0904715,87.485065 C34.2532064,87.9112678 34.4990247,88.3049755 34.8152365,88.6458634 C35.1178616,88.9662771 35.487571,89.2240437 35.9010468,89.4029059 C36.3201744,89.5855507 36.7765867,89.6794333 37.2382517,89.6779646 C37.7433469,89.6867251 38.2426864,89.5756601 38.6904562,89.3549598 C39.1123083,89.1403109 39.4707912,88.8298136 39.733476,88.4515558 L41.9559104,90.0161103 C41.4644535,90.675397 40.789849,91.1940527 40.0062658,91.5150543 C39.2421392,91.833761 38.4160262,91.9987688 37.5805761,91.9995615 C36.689158,92.0089642 35.8032089,91.8670751 34.9650034,91.5806647 C34.1957414,91.3170157 33.4914348,90.9083212 32.8950103,90.3794906 C32.3060172,89.8448975 31.8430842,89.199146 31.5364102,88.484361 C30.8874837,86.8847116 30.8874837,85.1152884 31.5364102,83.515639 C31.8430842,82.800854 32.3060172,82.1551025 32.8950103,81.6205094 C33.4914348,81.0916788 34.1957414,80.6829843 34.9650034,80.4193353 C35.8032089,80.1329249 36.689158,79.9910358 37.5805761,80.0004385 C37.9391307,80.0020862 38.2969308,80.0316268 38.65034,80.0887601 C39.0236845,80.1497752 39.3899708,80.2444178 39.7441736,80.3713893 C40.1102012,80.5034356 40.457772,80.6771585 40.7791702,80.8887016 C41.1152388,81.1087173 41.414521,81.374948 41.6670742,81.6785493 L39.6184764,83.2784323 Z M24.048063,83.6342423 L22.5771376,87.182248 L25.5350348,87.182248 L24.048063,83.6342423 Z M23.0210896,80.3108259 L25.2274776,80.3108259 L30.490716,91.7295497 L27.482005,91.7295497 L26.4416597,89.3095373 L21.750745,89.3095373 L20.7424925,91.7295497 L17.8006419,91.7295497 L23.0210896,80.3108259 Z M13.9468175,80.3108259 L16.6212272,80.3108259 L16.6212272,91.7295497 L13.9468175,91.7295497 L13.9468175,80.3108259 Z M3.67440972,89.3953354 L5.05707954,89.3953354 C5.63572586,89.398869 6.21283613,89.338741 6.77672499,89.2161687 C7.27326998,89.1124587 7.74144613,88.9122084 8.15137159,88.6281991 C8.54654753,88.3454079 8.86088468,87.974228 9.06601971,87.5481518 C9.30332917,87.03196 9.41745701,86.4728499 9.40032093,85.9104166 C9.41248115,85.4061431 9.29792233,84.9063188 9.06601971,84.4518482 C8.85306211,84.0544943 8.54660541,83.7083639 8.17009246,83.4399347 C7.76888667,83.1601952 7.31515393,82.954695 6.8328876,82.8343008 C6.31037079,82.6977881 5.77041156,82.6298567 5.22824177,82.6324228 L3.67440972,82.6324228 L3.67440972,89.3953354 Z M1,80.3107202 L5.01161458,80.3107202 C5.9414702,80.3069383 6.86834227,80.4103265 7.77160541,80.6186898 C8.59630323,80.7997447 9.37336466,81.1371572 10.0555513,81.6104155 C10.7093019,82.080782 11.2346627,82.6915536 11.5879881,83.3919887 C11.992806,84.2253025 12.1886484,85.1354349 12.1603118,86.0517312 C12.1801651,86.8925819 11.9924684,87.7262651 11.6120578,88.4868845 C11.2553238,89.1709886 10.7452086,89.7737224 10.1170627,90.2533169 C9.47138457,90.7404364 8.73484925,91.1093171 7.94544204,91.3409346 C7.11086719,91.5905275 6.24011977,91.7156839 5.36463666,91.7119693 L1.00802323,91.7119693 L1,80.3107202 Z" id="Shape" fill="#FFFFFF" fill-rule="nonzero"></path>
            </g>
        </g>
    </g>
</svg>