<?xml version="1.0" encoding="UTF-8"?>
<svg width="10px" height="14px" viewBox="0 0 10 14" version="1.1" xmlns="http://www.w3.org/2000/svg" xmlns:xlink="http://www.w3.org/1999/xlink">
    <title>marker</title>
    <g id="Page-1" stroke="none" stroke-width="1" fill="none" fill-rule="evenodd">
        <g id="Home" transform="translate(-107.000000, -23.000000)" fill="#F48120" fill-rule="nonzero">
            <path d="M112,36.6835787 L112.300781,36.32811 L112.350045,36.2734225 C112.453093,36.1541043 112.687322,35.8669949 113.052734,35.4120944 C113.499349,34.8561048 113.977865,34.1679537 114.488281,33.3476412 C114.998698,32.5273287 115.468099,31.624985 115.896484,30.64061 C116.32487,29.656235 116.539062,28.7174329 116.539062,27.8242037 C116.539062,27.1861829 116.420573,26.593735 116.183594,26.04686 C115.946615,25.499985 115.623047,25.0214694 115.212891,24.6113131 C114.802734,24.2011569 114.319661,23.8775892 113.763672,23.64061 C113.207682,23.4036308 112.619792,23.2851412 112,23.2851412 C111.380208,23.2851412 110.792318,23.4036308 110.236328,23.64061 C109.680339,23.8775892 109.197266,24.2011569 108.787109,24.6113131 C108.376953,25.0214694 108.053385,25.499985 107.816406,26.04686 C107.579427,26.593735 107.460938,27.1861829 107.460938,27.8242037 C107.460938,28.7174329 107.67513,29.656235 108.103516,30.64061 C108.531901,31.624985 109.001302,32.5273287 109.511719,33.3476412 C110.022135,34.1679537 110.500651,34.8561048 110.947266,35.4120944 C111.312678,35.8669949 111.546907,36.1541043 111.649955,36.2734225 L111.699219,36.32811 L111.699219,36.32811 L112,36.6835787 Z M112,35.3984225 C111.763021,35.1067558 111.434896,34.6783704 111.015625,34.1132662 C110.596354,33.5481621 110.186198,32.9101412 109.785156,32.1992037 C109.384115,31.4882662 109.033203,30.749985 108.732422,29.98436 C108.431641,29.218735 108.28125,28.4986829 108.28125,27.8242037 C108.28125,27.3137871 108.38151,26.8307142 108.582031,26.374985 C108.782552,25.9192558 109.051432,25.5273287 109.388672,25.1992037 C109.725911,24.8710787 110.117839,24.6067558 110.564453,24.406235 C111.011068,24.2057142 111.489583,24.1054537 112,24.1054537 C112.510417,24.1054537 112.988932,24.2057142 113.435547,24.406235 C113.882161,24.6067558 114.274089,24.8710787 114.611328,25.1992037 C114.948568,25.5273287 115.217448,25.9192558 115.417969,26.374985 C115.61849,26.8307142 115.71875,27.3137871 115.71875,27.8242037 C115.71875,28.4986829 115.568359,29.218735 115.267578,29.98436 C114.966797,30.749985 114.615885,31.4882662 114.214844,32.1992037 C113.813802,32.9101412 113.403646,33.5481621 112.984375,34.1132662 C112.565104,34.6783704 112.236979,35.1067558 112,35.3984225 Z M112,30.3945162 C112.346354,30.3945162 112.669922,30.3307142 112.970703,30.20311 C113.271484,30.0755058 113.53125,29.8977715 113.75,29.6699069 C113.96875,29.4420423 114.141927,29.1822767 114.269531,28.89061 C114.397135,28.5989433 114.460938,28.2799329 114.460938,27.9335787 C114.460938,27.5872246 114.397135,27.2636569 114.269531,26.9628756 C114.141927,26.6620944 113.96875,26.4023287 113.75,26.1835787 C113.53125,25.9648287 113.271484,25.7916517 112.970703,25.6640475 C112.669922,25.5364433 112.346354,25.4726412 112,25.4726412 C111.653646,25.4726412 111.330078,25.5364433 111.029297,25.6640475 C110.728516,25.7916517 110.46875,25.9648287 110.25,26.1835787 C110.03125,26.4023287 109.858073,26.6620944 109.730469,26.9628756 C109.602865,27.2636569 109.539062,27.5872246 109.539062,27.9335787 C109.539062,28.2799329 109.602865,28.5989433 109.730469,28.89061 C109.858073,29.1822767 110.03125,29.4420423 110.25,29.6699069 C110.46875,29.8977715 110.728516,30.0755058 111.029297,30.20311 C111.330078,30.3307142 111.653646,30.3945162 112,30.3945162 Z M112,29.5742037 C111.78125,29.5742037 111.571615,29.5331881 111.371094,29.4511569 C111.170573,29.3691256 110.992839,29.250636 110.837891,29.0956881 C110.682943,28.9407402 110.564453,28.7630058 110.482422,28.562485 C110.400391,28.3619642 110.359375,28.1523287 110.359375,27.9335787 C110.359375,27.6965996 110.400391,27.4778496 110.482422,27.2773287 C110.564453,27.0768079 110.682943,26.9036308 110.837891,26.7577975 C110.992839,26.6119642 111.170573,26.4980319 111.371094,26.4160006 C111.571615,26.3339694 111.78125,26.2929537 112,26.2929537 C112.21875,26.2929537 112.428385,26.3339694 112.628906,26.4160006 C112.829427,26.4980319 113.007161,26.6119642 113.162109,26.7577975 C113.317057,26.9036308 113.435547,27.0768079 113.517578,27.2773287 C113.599609,27.4778496 113.640625,27.6965996 113.640625,27.9335787 C113.640625,28.1523287 113.599609,28.3619642 113.517578,28.562485 C113.435547,28.7630058 113.317057,28.9407402 113.162109,29.0956881 C113.007161,29.250636 112.829427,29.3691256 112.628906,29.4511569 C112.428385,29.5331881 112.21875,29.5742037 112,29.5742037 Z" id="marker"></path>
        </g>
    </g>
</svg>