<?xml version="1.0" encoding="UTF-8"?>
<svg width="10px" height="15px" viewBox="0 0 10 15" version="1.1" xmlns="http://www.w3.org/2000/svg" xmlns:xlink="http://www.w3.org/1999/xlink">
    <title>mobile</title>
    <g id="Page-1" stroke="none" stroke-width="1" fill="none" fill-rule="evenodd">
        <g id="Home" transform="translate(-438.000000, -22.000000)" fill="#F48120" fill-rule="nonzero">
            <path d="M446.253906,36.874985 C446.454427,36.874985 446.623047,36.843084 446.759766,36.7792819 C446.896484,36.7154798 447.028646,36.6288912 447.15625,36.5195162 C447.283854,36.4101412 447.375,36.2779798 447.429688,36.1230319 C447.484375,35.968084 447.520833,35.8085787 447.539062,35.6445162 L447.511719,24.1054537 C447.529948,23.9413912 447.502604,23.781886 447.429688,23.6269381 C447.356771,23.4719902 447.265625,23.3398287 447.15625,23.2304537 C447.046875,23.1210787 446.914714,23.0344902 446.759766,22.9706881 C446.604818,22.906886 446.445312,22.874985 446.28125,22.874985 L439.691406,22.874985 C439.527344,22.874985 439.367839,22.906886 439.212891,22.9706881 C439.057943,23.0344902 438.925781,23.1210787 438.816406,23.2304537 C438.707031,23.3398287 438.615885,23.4719902 438.542969,23.6269381 C438.470052,23.781886 438.442708,23.9413912 438.460938,24.1054537 L438.433594,35.6445162 C438.451823,35.8085787 438.488281,35.968084 438.542969,36.1230319 C438.597656,36.2779798 438.688802,36.4101412 438.816406,36.5195162 C438.94401,36.6288912 439.076172,36.7154798 439.212891,36.7792819 C439.349609,36.843084 439.518229,36.874985 439.71875,36.874985 L446.253906,36.874985 Z M446.71875,25.3359225 L439.253906,25.3359225 L439.28125,24.1054537 C439.263021,24.0507662 439.272135,24.000636 439.308594,23.9550631 C439.345052,23.9094902 439.376953,23.8639173 439.404297,23.8183444 C439.431641,23.7727715 439.472656,23.7408704 439.527344,23.7226412 C439.582031,23.7044121 439.636719,23.6952975 439.691406,23.6952975 L446.28125,23.6952975 C446.335938,23.6952975 446.390625,23.7044121 446.445312,23.7226412 C446.5,23.7408704 446.541016,23.7727715 446.568359,23.8183444 C446.595703,23.8639173 446.627604,23.9094902 446.664062,23.9550631 C446.700521,24.000636 446.709635,24.0507662 446.691406,24.1054537 L446.71875,25.3359225 Z M446.691406,32.7460787 L439.28125,32.7460787 L439.253906,26.156235 L446.71875,26.156235 L446.691406,32.7460787 Z M446.253906,36.0546725 L439.71875,36.0546725 C439.627604,36.0546725 439.563802,36.0455579 439.527344,36.0273287 C439.490885,36.0090996 439.44987,35.9771985 439.404297,35.9316256 C439.358724,35.8860527 439.326823,35.8404798 439.308594,35.7949069 C439.290365,35.749334 439.272135,35.6992037 439.253906,35.6445162 L439.28125,33.593735 L446.691406,33.593735 L446.71875,35.6445162 C446.700521,35.6992037 446.682292,35.749334 446.664062,35.7949069 C446.645833,35.8404798 446.613932,35.8860527 446.568359,35.9316256 C446.522786,35.9771985 446.481771,36.0090996 446.445312,36.0273287 C446.408854,36.0455579 446.345052,36.0546725 446.253906,36.0546725 Z M442.972656,35.23436 C443.045573,35.23436 443.104818,35.2206881 443.150391,35.1933444 C443.195964,35.1660006 443.241536,35.1340996 443.287109,35.0976412 C443.332682,35.0611829 443.360026,35.0201673 443.369141,34.9745944 C443.378255,34.9290215 443.391927,34.8788912 443.410156,34.8242037 C443.391927,34.7695162 443.378255,34.7148287 443.369141,34.6601412 C443.360026,34.6054537 443.332682,34.5598808 443.287109,34.5234225 C443.241536,34.4869642 443.195964,34.4596204 443.150391,34.4413912 C443.104818,34.4231621 443.045573,34.4140475 442.972656,34.4140475 C442.936198,34.4140475 442.886068,34.4231621 442.822266,34.4413912 C442.758464,34.4596204 442.712891,34.4869642 442.685547,34.5234225 C442.658203,34.5598808 442.630859,34.6054537 442.603516,34.6601412 C442.576172,34.7148287 442.571615,34.7695162 442.589844,34.8242037 C442.571615,34.8788912 442.576172,34.9290215 442.603516,34.9745944 C442.630859,35.0201673 442.658203,35.0611829 442.685547,35.0976412 C442.712891,35.1340996 442.758464,35.1660006 442.822266,35.1933444 C442.886068,35.2206881 442.936198,35.23436 442.972656,35.23436 Z" id="mobile"></path>
        </g>
    </g>
</svg>