<?xml version="1.0" encoding="UTF-8"?>
<svg width="14px" height="12px" viewBox="0 0 14 12" version="1.1" xmlns="http://www.w3.org/2000/svg" xmlns:xlink="http://www.w3.org/1999/xlink">
    <title>twitter</title>
    <g id="Page-1" stroke="none" stroke-width="1" fill="none" fill-rule="evenodd">
        <g id="Home" transform="translate(-1321.000000, -25.000000)" fill="#FFFFFF" fill-rule="nonzero">
            <path d="M1325.09131,36.5685764 L1325.40234,36.5625 C1326.71484,36.5807292 1327.88151,36.3391927 1328.90234,35.8378906 C1329.92318,35.3365885 1330.77539,34.6985677 1331.45898,33.9238281 C1332.14258,33.1490885 1332.66667,32.2695312 1333.03125,31.2851562 C1333.39583,30.3007812 1333.56901,29.34375 1333.55078,28.4140625 C1333.56901,28.3776042 1333.57357,28.3457031 1333.56445,28.3183594 C1333.55534,28.2910156 1333.55534,28.2591146 1333.56445,28.2226562 L1333.57129,28.1713867 L1333.57129,28.1713867 L1333.56445,28.1269531 C1333.55534,28.0996094 1333.55078,28.0677083 1333.55078,28.03125 L1333.55,28.037 L1333.6799,27.9355469 C1333.72953,27.8960503 1333.77662,27.8580729 1333.82118,27.8216146 L1333.94727,27.7167969 C1334.06576,27.6165365 1334.19336,27.4980469 1334.33008,27.3613281 C1334.4668,27.2246094 1334.58529,27.0924479 1334.68555,26.9648438 C1334.78581,26.8372396 1334.89062,26.6914062 1335,26.5273438 C1334.85417,26.6184896 1334.71745,26.6822917 1334.58984,26.71875 C1334.46224,26.7552083 1334.32552,26.796224 1334.17969,26.8417969 C1334.03385,26.8873698 1333.89258,26.9192708 1333.75586,26.9375 C1333.61914,26.9557292 1333.47786,26.9830729 1333.33203,27.0195312 C1333.49609,26.9101562 1333.63737,26.8007812 1333.75586,26.6914062 C1333.87435,26.5820312 1333.99284,26.4589844 1334.11133,26.3222656 C1334.22982,26.1855469 1334.32552,26.0442708 1334.39844,25.8984375 C1334.47135,25.7526042 1334.54427,25.5885417 1334.61719,25.40625 C1334.45312,25.4973958 1334.30273,25.5748698 1334.16602,25.6386719 C1334.0293,25.702474 1333.87891,25.7708333 1333.71484,25.84375 C1333.55078,25.9166667 1333.39583,25.9713542 1333.25,26.0078125 C1333.10417,26.0442708 1332.9401,26.0807292 1332.75781,26.1171875 C1332.64844,25.9713542 1332.51172,25.84375 1332.34766,25.734375 C1332.18359,25.625 1332.01497,25.5292969 1331.8418,25.4472656 C1331.66862,25.3652344 1331.48177,25.3059896 1331.28125,25.2695312 C1331.08073,25.2330729 1330.88021,25.2057292 1330.67969,25.1875 C1330.27865,25.2057292 1329.90495,25.2877604 1329.55859,25.4335938 C1329.21224,25.5794271 1328.9069,25.7845052 1328.64258,26.0488281 C1328.37826,26.313151 1328.17318,26.6139323 1328.02734,26.9511719 C1327.88151,27.2884115 1327.79948,27.6666667 1327.78125,28.0859375 C1327.79948,28.1223958 1327.80859,28.172526 1327.80859,28.2363281 C1327.80859,28.3001302 1327.81771,28.3548177 1327.83594,28.4003906 C1327.85417,28.4459635 1327.85872,28.500651 1327.84961,28.5644531 C1327.84049,28.6282552 1327.85417,28.6783854 1327.89062,28.7148438 C1327.27083,28.6966146 1326.6875,28.610026 1326.14062,28.4550781 C1325.59375,28.3001302 1325.0651,28.0950521 1324.55469,27.8398438 C1324.04427,27.5846354 1323.57487,27.2747396 1323.14648,26.9101562 C1322.7181,26.5455729 1322.32161,26.1536458 1321.95703,25.734375 C1321.90234,25.8255208 1321.84766,25.9348958 1321.79297,26.0625 C1321.73828,26.1901042 1321.69727,26.3085938 1321.66992,26.4179688 C1321.64258,26.5273438 1321.61523,26.6503906 1321.58789,26.7871094 C1321.56055,26.9238281 1321.55599,27.046875 1321.57422,27.15625 C1321.55599,27.4296875 1321.58333,27.6757812 1321.65625,27.8945312 C1321.72917,28.1132812 1321.81576,28.3320312 1321.91602,28.5507812 C1322.01628,28.7695312 1322.15299,28.9609375 1322.32617,29.125 C1322.49935,29.2890625 1322.66797,29.4440104 1322.83203,29.5898438 C1322.74089,29.5533854 1322.63151,29.530599 1322.50391,29.5214844 C1322.3763,29.5123698 1322.26237,29.4895833 1322.16211,29.453125 C1322.06185,29.4166667 1321.95703,29.3802083 1321.84766,29.34375 C1321.73828,29.3072917 1321.64714,29.2526042 1321.57422,29.1796875 C1321.55599,29.1979167 1321.55143,29.2070312 1321.56055,29.2070312 C1321.56966,29.2070312 1321.56966,29.2115885 1321.56055,29.2207031 L1321.56055,29.2207031 C1321.56359,29.2237413 1321.55903,29.2374132 1321.54688,29.2617188 C1321.5651,29.5898438 1321.62891,29.9134115 1321.73828,30.2324219 C1321.84766,30.5514323 1322.00716,30.8294271 1322.2168,31.0664062 C1322.42643,31.3033854 1322.66797,31.5130208 1322.94141,31.6953125 C1323.21484,31.8776042 1323.52474,31.9960938 1323.87109,32.0507812 C1323.79818,32.0690104 1323.73438,32.0826823 1323.67969,32.0917969 L1323.59082,32.1088867 L1323.59082,32.1088867 L1323.48828,32.1328125 C1323.41536,32.1510417 1323.35156,32.155599 1323.29688,32.1464844 C1323.24219,32.1373698 1323.16927,32.1419271 1323.07812,32.1601562 C1323.0599,32.1419271 1323.02344,32.1373698 1322.96875,32.1464844 C1322.91406,32.155599 1322.86849,32.1510417 1322.83203,32.1328125 C1322.79557,32.1145833 1322.75,32.110026 1322.69531,32.1191406 C1322.64062,32.1282552 1322.60417,32.1145833 1322.58594,32.078125 C1322.65885,32.3880208 1322.7819,32.656901 1322.95508,32.8847656 C1323.12826,33.1126302 1323.32878,33.3222656 1323.55664,33.5136719 C1323.78451,33.7050781 1324.04427,33.8463542 1324.33594,33.9375 C1324.6276,34.0286458 1324.92839,34.0833333 1325.23828,34.1015625 C1325.0013,34.2838542 1324.74154,34.4570312 1324.45898,34.6210938 C1324.17643,34.7851562 1323.88932,34.9127604 1323.59766,35.0039062 C1323.30599,35.0950521 1322.99609,35.172526 1322.66797,35.2363281 C1322.33984,35.3001302 1322.01172,35.3229167 1321.68359,35.3046875 C1321.61068,35.3229167 1321.55143,35.327474 1321.50586,35.3183594 C1321.46029,35.3092448 1321.40104,35.3092448 1321.32812,35.3183594 C1321.25521,35.327474 1321.19596,35.3229167 1321.15039,35.3046875 C1321.10482,35.2864583 1321.04557,35.2864583 1320.97266,35.3046875 C1321.30078,35.4869792 1321.63346,35.6647135 1321.9707,35.8378906 C1322.30794,36.0110677 1322.66797,36.1477865 1323.05078,36.2480469 C1323.43359,36.3483073 1323.81641,36.4303385 1324.19922,36.4941406 C1324.58203,36.5579427 1324.98307,36.5807292 1325.40234,36.5625 L1325.09131,36.5685764 Z" id="twitter"></path>
        </g>
    </g>
</svg>