<?xml version="1.0" encoding="UTF-8"?>
<svg width="50px" height="50px" viewBox="0 0 50 50" version="1.1" xmlns="http://www.w3.org/2000/svg" xmlns:xlink="http://www.w3.org/1999/xlink">
    <title>acero</title>
    <defs>
        <filter id="filter-1">
            <feColorMatrix in="SourceGraphic" type="matrix" values="0 0 0 0 0.956863 0 0 0 0 0.505882 0 0 0 0 0.125490 0 0 0 1.000000 0"></feColorMatrix>
        </filter>
    </defs>
    <g id="Page-1" stroke="none" stroke-width="1" fill="none" fill-rule="evenodd">
        <g id="acero" transform="translate(-535.000000, -1107.000000)" filter="url(#filter-1)">
            <g transform="translate(535.000000, 1107.000000)">
                <path d="M50,5.83330078 L50,0.833300781 C50,0.82265625 49.9943359,0.813769531 49.9939453,0.803222656 C49.9923828,0.704199219 49.9728516,0.606347656 49.9365234,0.514257813 L49.9352539,0.512109375 C49.9321289,0.504492188 49.9261719,0.498925781 49.9228516,0.491503906 C49.8856445,0.410253906 49.8353516,0.335644531 49.7740234,0.270605469 C49.7538086,0.250390625 49.7326172,0.23125 49.7104492,0.21328125 C49.6579102,0.167089844 49.5996094,0.127734375 49.5370117,0.0963867188 C49.5112305,0.082421875 49.4847656,0.0698242188 49.4576172,0.0587890625 C49.3649414,0.0216796875 49.2664062,0.0017578125 49.1666016,0 L22.5,0 C22.2790039,0 22.0670898,0.087890625 21.9108398,0.244140625 L0.244433594,21.9105469 L0.243164063,21.9121094 C0.176171875,21.9814453 0.121875,22.0620117 0.0827148438,22.1500977 C0.0444335938,22.2456055 0.0201171875,22.3460938 0.0103515625,22.4485352 C0.0091796875,22.4665039 0,22.4817383 0,22.5 L0,27.5 C0,27.9602539 0.373046875,28.3333008 0.833300781,28.3333008 L7.08330078,28.3333008 C9.15341797,28.3355469 10.8310547,30.0131836 10.8333008,32.0833008 L10.8333008,32.9882812 L0.244433594,43.5772461 C0.0890625,43.7342773 0.0013671875,43.9458008 0,44.1666992 L0,49.1666992 C0,49.6269531 0.373046875,50 0.833300781,50 L27.5,50 C27.6124023,50 27.7235352,49.9771484 27.8268555,49.9328125 C27.8380859,49.9280273 27.8460938,49.9176758 27.8571289,49.9124023 C27.9456055,49.871582 28.0262695,49.8155273 28.0954102,49.7467773 L28.103418,49.7412109 L44.7558594,32.2558594 L49.7558594,27.2558594 C49.9121094,27.0996094 50,26.8876953 50,26.6666992 L50,21.6666992 C50,21.6560547 49.9943359,21.647168 49.9939453,21.6366211 C49.9923828,21.5375977 49.9728516,21.4397461 49.9365234,21.3476563 L49.9352539,21.3455078 C49.9321289,21.3378906 49.9261719,21.3323242 49.9228516,21.3249023 C49.8410156,21.1544922 49.7054688,21.0157227 49.5371094,20.9297852 C49.5113281,20.9157227 49.4848633,20.9032227 49.4577148,20.8920898 C49.3650391,20.8549805 49.2665039,20.8350586 49.1666992,20.8333008 L42.9166992,20.8333008 C42.8457031,20.8379883 42.7756836,20.8521484 42.7083984,20.8753906 C42.6411133,20.8522461 42.5710938,20.8380859 42.5000977,20.8333008 C40.5561523,20.8273438 38.9404297,19.334082 38.7817383,17.396582 L49.7553711,6.42304688 C49.9109375,6.26611328 49.9987305,6.05439453 50,5.83330078 Z M22.8450195,1.66669922 L47.1548828,1.66669922 L27.1548828,21.6666992 L2.84501953,21.6666992 L22.8450195,1.66669922 Z M10.8333008,35.3450195 L10.8333008,39.5833008 C10.8310547,41.653418 9.15341797,43.3310547 7.08330078,43.3333008 L2.84501953,43.3333008 L10.8333008,35.3450195 Z M26.6666992,48.3333008 L1.66669922,48.3333008 L1.66669922,45 L7.08339844,45 C10.0735352,44.996582 12.496582,42.5734375 12.5000977,39.5833008 L12.5000977,32.0833008 C12.4966797,29.0931641 10.0735352,26.6701172 7.08339844,26.6666016 L1.66669922,26.6666016 L1.66669922,23.3333008 L26.6666992,23.3333008 L26.6666992,26.6666016 L21.25,26.6666016 C18.2598633,26.6700195 15.8368164,29.0931641 15.8333008,32.0833008 L15.8333008,39.5833008 C15.8367187,42.5734375 18.2598633,44.9964844 21.25,45 L26.6666992,45 L26.6666992,48.3333008 L26.6666992,48.3333008 Z M48.3333984,26.321582 L43.562793,31.0920898 L28.3333008,47.0831055 L28.3333008,44.4998047 L44.7558594,27.2558594 L48.3333984,23.678418 L48.3333984,26.321582 L48.3333984,26.321582 Z M42.5,22.5 C42.5709961,22.4953125 42.6410156,22.4811523 42.7083008,22.4579102 C42.7755859,22.4810547 42.8456055,22.4952148 42.9166016,22.5 L47.1548828,22.5 L43.562793,26.0920898 L27.1426758,43.3333008 L21.25,43.3333008 C19.1798828,43.3310547 17.5022461,41.653418 17.5,39.5833008 L17.5,32.0833008 C17.5022461,30.0131836 19.1798828,28.3355469 21.25,28.3333008 L27.5,28.3333008 C27.7209961,28.3326172 27.9328125,28.2448242 28.0894531,28.0888672 L37.3699219,18.8083984 C38.1120117,21.0113281 40.1754883,22.4961914 42.5,22.5 Z M48.3333008,5.48828125 L37.3277344,16.4938477 L37.3272461,16.4943359 L28.3333008,25.4882812 L28.3333008,22.8450195 L48.3333008,2.84501953 L48.3333008,5.48828125 Z" id="Shape" fill="#000000" fill-rule="nonzero"></path>
                <path d="M20.9642715,39.2904329 C20.5963837,39.1381889 20.1726578,39.2228453 19.8922036,39.5048803 C19.7130852,39.6922927 19.6116346,39.9400757 19.6078431,40.1989706 C19.6078431,40.7388695 20.0468498,41.1764706 20.5882262,41.1764706 C21.1297176,41.1764706 21.5686275,40.7388695 21.5686275,40.1989706 C21.5710221,39.801693 21.3321593,39.4426768 20.9642715,39.2904329 Z" id="Path" fill="#000000" fill-rule="nonzero"></path>
                <path d="M24.740773,35.3214379 C24.4002026,35.2399777 24.0413566,35.3436131 23.7994056,35.5931981 L23.7994056,35.5931981 L22.8186134,36.6048884 C22.4462043,36.9909192 22.4614914,37.6008523 22.8528658,37.9683283 C23.2442402,38.3358042 23.8638875,38.3222275 24.2381357,37.938007 L25.2189279,36.9263167 C25.4608789,36.6767317 25.5491536,36.3189857 25.4505342,35.9879406 C25.3519148,35.6570086 25.0813435,35.4028981 24.740773,35.3214379 Z" id="Path" fill="#000000" fill-rule="nonzero"></path>
                <path d="M26.7415407,32.6517729 L25.7612913,33.6628553 C25.3874801,34.048428 25.4020695,34.6593515 25.7938016,35.027285 C26.1855338,35.3952186 26.8062167,35.3808586 27.1800279,34.9952859 L28.1602773,33.9842035 C28.5340886,33.5986309 28.5194991,32.9877074 28.127767,32.6197738 C27.73592,32.2518402 27.1153519,32.2662003 26.7415407,32.6517729 Z" id="Path" fill="#000000" fill-rule="nonzero"></path>
                <path d="M30.6631564,28.7302396 L29.6829343,29.7413888 C29.4120608,30.0208061 29.3364736,30.4322993 29.4908646,30.7873662 C29.6452556,31.1424332 29.9998724,31.3726613 30.3922829,31.372549 C30.6602845,31.3728875 30.9167988,31.2648974 31.1016314,31.0737944 L32.0818535,30.0626452 C32.4556543,29.677047 32.4410653,29.0660831 32.0493441,28.6981252 C31.6576229,28.3302804 31.0369572,28.3446414 30.6631564,28.7302396 Z" id="Path" fill="#000000" fill-rule="nonzero"></path>
                <path d="M34.5448447,24.5369189 C34.2040887,24.4556651 33.8450779,24.5599728 33.6036325,24.8102886 L32.6239591,25.8208188 C32.3532371,26.1000651 32.2776922,26.5113063 32.4319968,26.8661559 C32.5863014,27.2210054 32.9407198,27.4510926 33.3329106,27.4509804 C33.6007623,27.4513186 33.857133,27.3433946 34.0418622,27.1524087 L35.0215357,26.1418786 C35.264244,25.8926928 35.3531069,25.534905 35.2547147,25.2036744 C35.1563226,24.8724438 34.8857155,24.6181726 34.5448447,24.5369189 Z" id="Path" fill="#000000" fill-rule="nonzero"></path>
                <path d="M35.8985661,22.6238152 C35.5307707,22.7760551 35.2919679,23.1351765 35.2942651,23.5323293 C35.2896706,23.7899574 35.392589,24.0378485 35.5785542,24.2167792 C35.7618776,24.4033849 36.0125114,24.5088875 36.2745169,24.5098039 C36.5364074,24.5088875 36.7871561,24.4032703 36.9704795,24.2167792 C37.156215,24.037734 37.2591334,23.7898428 37.2547686,23.5323293 C37.252701,23.273212 37.1509313,23.0247481 36.9704795,22.838257 C36.6899809,22.5562293 36.2663615,22.4714606 35.8985661,22.6238152 Z" id="Path" fill="#000000" fill-rule="nonzero"></path>
            </g>
        </g>
    </g>
</svg>