<?xml version="1.0" encoding="UTF-8"?>
<svg width="74px" height="65px" viewBox="0 0 74 65" version="1.1" xmlns="http://www.w3.org/2000/svg" xmlns:xlink="http://www.w3.org/1999/xlink">
    <title>mision</title>
    <defs>
        <filter id="filter-1">
            <feColorMatrix in="SourceGraphic" type="matrix" values="0 0 0 0 0.956863 0 0 0 0 0.505882 0 0 0 0 0.125490 0 0 0 1.000000 0"></feColorMatrix>
        </filter>
    </defs>
    <g id="Page-1" stroke="none" stroke-width="1" fill="none" fill-rule="evenodd">
        <g id="mision" transform="translate(-107.000000, -1733.000000)" filter="url(#filter-1)">
            <g transform="translate(107.000000, 1733.000000)">
                <path d="M8.58485142,53.9621285 C6.55293222,53.9621285 4.90560885,55.6094519 4.90560885,57.6413711 C4.90560885,59.6732903 6.5527885,61.3206136 8.58485142,61.3206136 C10.6169143,61.3206136 12.264094,59.673434 12.264094,57.6413711 C12.2619382,55.6103142 10.6159083,53.964428 8.58485142,53.9621285 Z M8.58485142,58.8678811 C7.90749711,58.8678811 7.35848514,58.3188691 7.35848514,57.6415148 C7.35848514,56.9641605 7.90749711,56.4151485 8.58485142,56.4151485 C9.26220572,56.4151485 9.8112177,56.9641605 9.8112177,57.6415148 C9.81064282,58.3184379 9.26191828,58.8671625 8.58485142,58.8678811 Z" id="Shape" fill="#000000" fill-rule="nonzero"></path>
                <path d="M41.6980345,57.6413711 C41.6980345,59.6732903 43.3452142,61.3206136 45.3772771,61.3206136 C47.40934,61.3206136 49.0565197,59.673434 49.0565197,57.6413711 C49.0565197,55.6093082 47.4091963,53.9621285 45.3772771,53.9621285 C43.3462202,53.964428 41.7003341,55.6103142 41.6980345,57.6413711 Z M46.6037871,57.6413711 C46.6037871,58.3187254 46.0547751,58.8677374 45.3774208,58.8677374 C44.7000665,58.8677374 44.1510545,58.3187254 44.1510545,57.6413711 C44.1510545,56.9640168 44.7000665,56.4150048 45.3774208,56.4150048 C46.054344,56.4157234 46.6030685,56.9643042 46.6037871,57.6413711 Z" id="Shape" fill="#000000" fill-rule="nonzero"></path>
                <path d="M17.1698466,28.2074307 C17.4950859,28.2075743 17.8071029,28.0783696 18.0371992,27.8482732 C18.2671519,27.6183206 18.3963566,27.3063036 18.3963566,26.9809205 L18.3963566,25.7545543 C18.3963566,25.0771999 17.8473446,24.528188 17.1699903,24.528188 C16.492636,24.528188 15.9436239,25.0771999 15.9436239,25.7545543 L15.9436239,26.9809205 C15.9434803,27.3061598 16.0726849,27.6181768 16.3027813,27.8482732 C16.5324465,28.0783696 16.8444635,28.2075743 17.1698466,28.2074307 Z" id="Path" fill="#000000" fill-rule="nonzero"></path>
                <path d="M17.1698466,34.3395495 C17.4950859,34.3396931 17.8071029,34.2104885 18.0371992,33.9803921 C18.2671519,33.7504394 18.3963566,33.4384224 18.3963566,33.1130394 L18.3963566,31.8866731 C18.3963566,31.2093188 17.8473446,30.6603068 17.1699903,30.6603068 C16.492636,30.6603068 15.9436239,31.2093188 15.9436239,31.8866731 L15.9436239,33.1130394 C15.9434803,33.4382787 16.0726849,33.7502957 16.3027813,33.9803921 C16.5324465,34.2104885 16.8444635,34.3396931 17.1698466,34.3395495 Z" id="Path" fill="#000000" fill-rule="nonzero"></path>
                <path d="M72.8268699,18.4906371 C72.6784067,18.4286937 72.5193082,18.396644 72.3584851,18.3962128 L54.1706668,18.3962128 C53.8452838,18.3962128 53.5331231,18.5254175 53.302883,18.7555139 L42.7717697,29.2985559 C41.2895811,28.5822534 39.6649656,28.2092989 38.018792,28.2074305 L38.018792,23.5616682 C38.018792,23.5036051 38.0049948,23.4478416 38.0009706,23.3903535 C38.0032702,23.3594536 38.018792,23.3331527 38.018792,23.301678 C38.0146241,23.1026252 37.9608726,22.907884 37.8622804,22.7348447 C37.8420159,22.67865 37.8313805,22.6198683 37.8068044,22.5651109 L30.2959756,5.66517123 L30.2860589,5.64289457 L28.4254544,1.45631894 C28.0315168,0.57085748 27.1532413,-4.08477981e-15 26.1839908,-4.08477981e-15 L2.45287629,-4.08477981e-15 C1.09874256,0.00143720413 0.00158092454,1.09874256 0,2.45273256 L0,35.5659157 C0.00287440826,38.2740394 2.19748511,40.4686501 4.90560885,40.4715245 L6.13197513,40.4715245 L6.13197513,50.2828859 C2.74707197,50.2869101 0.00402417156,53.0299579 0,56.4150048 L0,58.8678811 C0.00402417156,62.252928 2.74707197,64.9959758 6.13211885,65 L47.8301534,65 C51.2152003,64.9959758 53.9582481,62.252928 53.9622722,58.8678811 L53.9622722,56.4150048 C53.9582481,53.5025106 51.9095136,50.9932959 49.0566634,50.4069167 L49.0566634,39.245302 C49.054795,37.5991284 48.6819843,35.9745128 47.9656817,34.4923242 L56.7145181,25.754698 L66.2263662,25.754698 L66.2263662,46.2429051 L55.383236,63.1100765 C55.1403485,63.4874863 55.123102,63.9673688 55.3381077,64.3613064 C55.5531135,64.7552441 55.9661659,65 56.4150048,65 L67.4527325,65 C70.8377794,64.9959758 73.5808272,62.252928 73.5848514,58.8678811 L73.5848514,19.6225791 C73.582983,19.1270311 73.284332,18.680923 72.8268699,18.4906371 Z M38.018792,30.6603068 C42.2844138,30.6657682 45.901138,33.7977234 46.5162614,38.018792 L38.018792,38.018792 L38.018792,30.6603068 Z M46.6037871,40.4716682 L46.6037871,50.2830297 L33.1131831,50.2830297 L33.1131831,40.4716682 L46.6037871,40.4716682 Z M28.3643732,7.35848514 L34.9053767,22.0754554 L20.8489454,22.0754554 L20.8489454,7.35848514 L28.3643732,7.35848514 Z M2.45287629,7.35848514 L13.490604,7.35848514 L13.4923286,22.0754554 L2.45287629,22.0754554 L2.45287629,7.35848514 Z M4.90560885,38.018792 C3.55161884,38.017211 2.45431349,36.9199057 2.45273256,35.5659157 L2.45273256,24.528188 L13.4904603,24.528188 C14.8444503,24.526607 15.9417556,23.4294454 15.9433366,22.0753117 L15.9433366,7.35834142 C15.9417556,6.00435141 14.8444503,4.90704605 13.4904603,4.90546513 L2.45273256,4.90546513 L2.45273256,2.45273256 L26.1839908,2.45273256 L27.2742539,4.90560885 L20.8490891,4.90560885 C19.4950991,4.90718977 18.3977938,6.00435141 18.3962128,7.35848514 L18.3962128,22.0754554 C18.3977938,23.4294454 19.4949554,24.5267508 20.8490891,24.5283317 L35.5662031,24.5283317 L35.566778,29.4303475 L35.5660594,29.4339405 L35.5660594,38.018792 L18.3962128,38.018792 C18.3962128,37.3414377 17.8472009,36.7924257 17.1698466,36.7924257 C16.4924923,36.7924257 15.9434803,37.3415814 15.9434803,38.018792 L4.90560885,38.018792 Z M20.8490891,46.6036434 L20.8490891,44.1507671 L30.6604505,44.1507671 L30.6604505,46.6036434 L20.8490891,46.6036434 Z M30.6603068,49.0565197 L30.6603068,50.2828859 L20.8489454,50.2828859 L20.8489454,49.0565197 L30.6603068,49.0565197 Z M20.8490891,41.6980345 L20.8490891,40.4716682 L30.6604505,40.4716682 L30.6604505,41.6980345 L20.8490891,41.6980345 Z M18.3962128,40.4716682 L18.3962128,50.2830297 L8.58485142,50.2830297 L8.58485142,40.4716682 L18.3962128,40.4716682 Z M51.5093959,56.4150048 L51.5093959,58.8678811 C51.5072401,60.898938 49.8612103,62.5449678 47.8301534,62.5471237 L6.13211885,62.5471237 C4.10106198,62.5449678 2.45503209,60.898938 2.45287629,58.8678811 L2.45287629,56.4150048 C2.45503209,54.3839479 4.10106198,52.737918 6.13211885,52.7357622 L47.8301534,52.7357622 C49.8612103,52.737918 51.5072401,54.3839479 51.5093959,56.4150048 Z M46.6303754,32.3585072 C46.1204553,31.7221132 45.5419807,31.1437823 44.9057304,30.6337185 L53.6988327,21.8304121 L54.8536262,24.1458917 L46.6303754,32.3585072 Z M57.1739923,23.3018217 L55.9507879,20.8489454 L69.3978446,20.8489454 L66.9449683,23.3018217 L57.1739923,23.3018217 Z M71.1319751,58.8678811 C71.1298193,60.898938 69.4837894,62.5449678 67.4527325,62.5471237 L58.6612111,62.5471237 L68.1221822,47.8301534 L71.1319751,47.8301534 L71.1319751,58.8678811 Z M71.1319751,45.3772771 L68.6790988,45.3772771 L68.6790988,25.0360959 L71.1319751,22.5832196 L71.1319751,45.3772771 Z" id="Shape" fill="#000000" fill-rule="nonzero"></path>
                <path d="M6.13211885,13.4904613 C6.45750187,13.4908914 6.76951888,13.3615431 6.9991841,13.1311592 L8.22555039,11.904793 C8.69709706,11.4246231 8.69350405,10.6542816 8.21778948,10.1784234 C7.74207492,9.70256507 6.97158978,9.69911578 6.49141989,10.1706625 L5.2650536,11.3970287 C4.9143758,11.7477065 4.80960361,12.2751605 4.99931456,12.7333411 C5.1890255,13.1916655 5.63613971,13.4904613 6.13211885,13.4904613 Z" id="Path" fill="#000000" fill-rule="nonzero"></path>
                <path d="M8.94429617,13.849905 L5.2650536,17.5291476 C4.95059334,17.8380028 4.82598774,18.2918718 4.93880827,18.7178591 C5.05162879,19.1439901 5.38434155,19.4767029 5.81047257,19.5895234 C6.23660359,19.702344 6.69032894,19.5777384 6.9991841,19.2632781 L10.6784267,15.5840355 C11.1499733,15.1038656 11.1463803,14.3335242 10.6706658,13.8576659 C10.1949512,13.3818076 9.42432235,13.3783583 8.94429617,13.849905 Z" id="Path" fill="#000000" fill-rule="nonzero"></path>
            </g>
        </g>
    </g>
</svg>