<?xml version="1.0" encoding="UTF-8"?>
<svg width="65px" height="65px" viewBox="0 0 65 65" version="1.1" xmlns="http://www.w3.org/2000/svg" xmlns:xlink="http://www.w3.org/1999/xlink">
    <title>vision</title>
    <defs>
        <filter id="filter-1">
            <feColorMatrix in="SourceGraphic" type="matrix" values="0 0 0 0 0.956863 0 0 0 0 0.505882 0 0 0 0 0.125490 0 0 0 1.000000 0"></feColorMatrix>
        </filter>
    </defs>
    <g id="Page-1" stroke="none" stroke-width="1" fill="none" fill-rule="evenodd">
        <g id="vision" transform="translate(-745.000000, -1733.000000)" filter="url(#filter-1)">
            <g transform="translate(745.000000, 1733.000000)">
                <path d="M62.352561,19.6330854 C57.219847,7.71057951 45.4804029,-0.010009548 32.5000229,9.74011652e-06 C19.5196429,-0.010009548 7.78032575,7.71057951 2.64748478,19.6330854 C-2.4853562,31.5555914 -0.0251928313,45.3892021 8.90319819,54.8110476 C8.96933912,54.9085452 9.05122185,54.9944903 9.14554567,55.0650745 C12.3307203,58.3638693 16.1760347,60.9535217 20.4303819,62.6649341 C20.4570414,62.6783908 20.4839548,62.6857539 20.511503,62.6969255 C28.209368,65.7655601 36.7909317,65.7655601 44.4887967,62.6969255 C44.5163448,62.685627 44.5432582,62.6783908 44.5699177,62.6649341 C48.824138,60.9535217 52.6695794,58.3638693 55.854754,55.0650745 C55.9490778,54.9944903 56.0309605,54.9085452 56.0971015,54.8110476 C65.0252386,45.3892021 67.485275,31.5554644 62.352561,19.6330854 Z M11.6097714,54.4602849 C13.0237401,53.6893177 14.5377454,53.1179159 16.1086243,52.762583 C16.6566673,52.6653393 17.1955699,52.5217589 17.7193654,52.3333651 C17.4888243,54.7069486 17.7419625,57.1027484 18.4634192,59.3757875 C15.962124,58.062871 13.6554432,56.408459 11.6097714,54.4602849 Z M43.3924568,60.8011817 C36.3832953,63.5087705 28.6170043,63.5087705 21.6077159,60.8011817 L21.6077159,60.8011817 C19.2828812,57.5975993 19.8121356,52.6756223 20.0283314,51.2569564 C20.3987714,51.0472351 20.7407746,50.8370059 21.054341,50.6319817 L21.054341,52.2241882 C21.054341,52.8225034 21.5392899,53.3074522 22.1376051,53.3074522 C22.7359202,53.3074522 23.2208691,52.8225034 23.2208691,52.2241882 L23.2208691,47.5090126 C23.7644689,48.1838786 24.2206001,48.8403369 24.6427087,49.4535052 C26.0074208,51.4360828 27.295963,53.3074522 30.4274378,53.3074522 L34.5723541,53.3074522 C37.7038289,53.3074522 38.992371,51.4359558 40.3570831,49.4535052 C40.7791918,48.8404638 41.235323,48.1840056 41.7789227,47.5090126 L41.7789227,52.2241882 C41.7789227,52.8225034 42.2638716,53.3074522 42.8621868,53.3074522 C43.460502,53.3074522 43.9454508,52.8225034 43.9454508,52.2241882 L43.9454508,50.6323626 C44.2593981,50.8376407 44.6017822,51.0479968 44.9724761,51.257845 C45.1913378,52.6739719 45.7257971,57.5863008 43.3924568,60.8011817 Z M29.2501038,27.0827633 C29.2516272,28.2787589 30.2207632,29.247768 31.4167588,29.2494183 L33.5834139,29.2494183 C34.7794095,29.2478949 35.7484186,28.2787589 35.7500689,27.0827633 L45.8417025,27.0827633 C45.6987568,28.5318971 45.4966525,29.587613 45.3134637,30.5411342 C45.1660748,31.310324 45.0378553,32.0199743 44.9607967,32.7938613 L37.95976,35.2816998 C37.5160699,35.4414028 37.0200764,35.2940139 36.7357084,34.9177342 L35.8692749,33.7805165 C35.2529329,32.9753998 34.2977613,32.5020034 33.283812,32.4993374 L31.7159799,32.4993374 C30.7025383,32.5018764 29.7476207,32.974765 29.1315325,33.7793739 L28.2640834,34.9177342 C27.9793346,35.293887 27.4829603,35.4414028 27.0390162,35.2816998 L20.0391221,32.7939883 C19.9620635,32.0199743 19.8337171,31.310451 19.6864551,30.5411342 C19.5032663,29.58774 19.301162,28.5318971 19.1582163,27.0827633 L29.2501038,27.0827633 L29.2501038,27.0827633 Z M19.0109544,24.9161082 C18.9463368,23.3241557 18.950907,21.3464022 19.0750641,18.7961043 L19.0750641,18.7961043 C19.5384315,9.29389947 31.0210558,8.68669778 31.4643651,8.66651274 L33.4902326,8.66537019 C33.97899,8.68657083 45.4616143,9.29377252 45.9249816,18.7959774 C46.0491387,21.3464022 46.0537089,23.3240287 45.9890914,24.9159813 L35.749942,24.9159813 C34.5539464,24.9175047 33.5849373,25.8866407 33.5832869,27.0826363 L31.4166319,27.0826363 C31.4151085,25.8866407 30.4459724,24.9176316 29.2499768,24.9159813 L19.0109544,24.9159813 L19.0109544,24.9161082 Z M20.0525788,36.0579988 L20.0525788,36.0579988 L20.0533405,36.0352748 C20.1014546,35.867193 20.1070404,35.6898439 20.0697171,35.5189693 C20.0756837,35.3835137 20.0778419,35.2455191 20.082666,35.1089209 L26.3122277,37.3233091 C27.6439328,37.800641 29.1314056,37.3586012 29.9864136,36.2315394 L30.8550052,35.0921635 C31.0604103,34.8241721 31.3785469,34.6666272 31.7162338,34.6658655 L33.2840659,34.6658655 C33.6222606,34.6668811 33.940778,34.8248069 34.14631,35.093306 L35.0137591,36.2316664 C35.8688941,37.3578395 37.3553512,37.7997523 38.6868025,37.3234361 L44.9175067,35.1089209 C44.9224578,35.245646 44.9246159,35.3837676 44.9304556,35.5190962 C44.8931323,35.6898439 44.8987181,35.86732 44.9468322,36.0354017 L44.9475939,36.0581258 C45.0872388,38.9483956 45.19832,41.2313368 42.1388259,43.9776454 C42.1254962,43.9895787 42.115721,44.001512 42.1025182,44.0134453 L42.0924892,44.0233474 C40.7515167,45.2745663 39.5694856,46.6857421 38.5726744,48.2252643 C37.1804142,50.2469425 36.4843475,51.1409241 34.572735,51.1409241 L30.4278186,51.1409241 C28.516206,51.1409241 27.8200124,50.2469425 26.4278791,48.2252643 C25.431068,46.6857421 24.2489099,45.2745663 22.9080644,44.0233474 L22.8980353,44.0134453 C22.8848325,44.001512 22.8749305,43.9895787 22.8617277,43.9776454 C19.8018527,41.2312099 19.9129339,38.9482687 20.0525788,36.0579988 Z M46.5366266,59.3757875 C47.2580832,57.1026214 47.5112215,54.7069486 47.2806803,52.3332382 C47.8048567,52.5218858 48.3440132,52.6659741 48.8924371,52.7637255 C50.4629351,53.1184237 51.9766865,53.6894447 53.3902743,54.4604118 C51.3446026,56.408586 49.0379217,58.062871 46.5366266,59.3757875 Z M54.976895,52.8451005 L54.976895,52.8451005 C53.1910898,51.8259461 51.2634816,51.0785917 49.2574182,50.6276654 C48.2872666,50.4382561 47.3526609,50.0980302 46.4877508,49.6194288 C45.59415,49.1465402 44.7435853,48.596466 43.9455778,47.9756807 L43.9455778,45.2468912 C47.2315507,42.0975164 47.2596066,39.180968 47.1308794,36.3605206 C49.1875957,35.0585218 50.607658,32.9572459 51.0484283,30.5632235 C51.4885638,26.8731689 51.0886715,24.7108301 49.8572568,24.1373971 C49.3310492,23.8900986 48.7290525,23.8581072 48.179613,24.0482783 C48.21262,22.5700729 48.1929428,20.8176556 48.0894785,18.6902281 C47.5287405,7.20531865 33.7198851,6.50607824 33.5358076,6.49973074 L31.4199326,6.50087329 C31.2802876,6.50620519 17.4713052,7.2054456 16.9105672,18.6902281 C16.806976,20.8189251 16.7874257,22.572231 16.8204327,24.0509442 C16.2708663,23.8601384 15.6684888,23.8914951 15.1417734,24.1385397 C13.9113743,24.7108301 13.5114819,26.8732958 13.9569493,30.5992773 C14.4048288,32.9794622 15.8219713,35.0663927 17.8692933,36.3605206 C17.7405661,39.180968 17.7684951,42.0975164 21.0545949,45.2468912 L21.0545949,47.9756807 C20.2545562,48.5976085 19.4017064,49.1486983 18.5060744,49.6226026 C17.6433224,50.0995536 16.7113827,50.4386369 15.743897,50.6276654 C13.7374528,51.0783378 11.8093368,51.8256922 10.0234047,52.8451005 C-0.96589207,40.7182051 -0.35386629,22.0606227 11.4061437,10.6799392 C23.1661537,-0.700744306 41.8338921,-0.700744306 53.5939021,10.6799392 C65.353912,22.0606227 65.9659378,40.7182051 54.976895,52.8451005 Z M47.0704512,33.6875891 C47.1225007,32.7665671 47.2467847,31.8510039 47.4420337,30.9494053 C47.7239896,29.5651429 47.9246975,28.1656465 48.0431418,26.7578983 C48.2522284,26.4786084 48.5263134,26.2545417 48.8416571,26.1051216 C49.0894634,27.479355 49.1101563,28.884945 48.9029739,30.2659067 C48.6398066,31.5610502 48.0026448,32.7506983 47.0704512,33.6875891 Z M17.9295946,33.6880969 C17.0059066,32.7619969 16.3715377,31.5874558 16.1034193,30.3072924 C15.8900164,28.9131279 15.9085511,27.4933195 16.1583887,26.1052485 C16.4737324,26.2546687 16.7478174,26.4787353 16.9569039,26.7581522 C17.0753483,28.1657734 17.2760562,29.5652698 17.558012,30.9495322 C17.7532611,31.8511309 17.8775451,32.766821 17.9295946,33.6880969 Z" id="Shape" fill="#000000" fill-rule="nonzero"></path>
            </g>
        </g>
    </g>
</svg>