<?xml version="1.0" encoding="UTF-8"?>
<svg width="50px" height="50px" viewBox="0 0 50 50" version="1.1" xmlns="http://www.w3.org/2000/svg" xmlns:xlink="http://www.w3.org/1999/xlink">
    <title>herrajes</title>
    <defs>
        <filter id="filter-1">
            <feColorMatrix in="SourceGraphic" type="matrix" values="0 0 0 0 0.956863 0 0 0 0 0.505882 0 0 0 0 0.125490 0 0 0 1.000000 0"></feColorMatrix>
        </filter>
    </defs>
    <g id="Page-1" stroke="none" stroke-width="1" fill="none" fill-rule="evenodd">
        <g id="herrajes" transform="translate(-538.000000, -1598.000000)" filter="url(#filter-1)">
            <g transform="translate(538.000000, 1598.000000)">
                <path d="M45.8334224,5.55095306e-15 L27.5006569,5.55095306e-15 C26.1206191,0.00146480098 25.0021947,1.11988918 25.0007299,2.49992701 L22.5008029,2.49992701 C22.4993381,1.11988918 21.3809137,0.00146480098 20.0008759,5.55095306e-15 L18.3342253,5.55095306e-15 C16.9541875,0.00146480098 15.8357631,1.11988918 15.8342983,2.49992701 L9.16779372,2.49992701 C9.16671953,1.57993434 8.42123348,0.83435064 7.50124081,0.833374106 L6.66796436,0.833374106 C5.48254975,0.837182589 4.38902699,1.47222264 3.79832158,2.50002466 L2.50138679,2.50002466 C1.84164043,2.49514199 1.20806518,2.75773198 0.745285718,3.2279331 C0.266198144,3.69256797 -0.00244635675,4.33258835 0.00145977921,4.99985402 C0.00292458019,6.37989185 1.12134896,7.49831623 2.50138679,7.49978103 L3.79832158,7.49978103 C4.38902699,8.5274854 5.48254975,9.16262311 6.66796436,9.16643159 L7.50124081,9.16643159 C8.42123348,9.1653574 9.16681718,8.4197737 9.16789137,7.49978103 L15.5130186,7.49978103 C15.4399739,7.55808011 15.3569685,7.60261006 15.2680062,7.63122251 C5.19056609,10.7473425 -1.17858389,20.6676583 0.182606834,31.1275092 C1.54379756,41.5874577 10.2396374,49.5473815 20.7787828,49.980572 C20.8015361,49.9817438 20.8235081,49.9822321 20.846359,49.9822321 C21.2714442,49.9822321 21.6798308,49.8166119 21.9848023,49.5204292 C22.0911469,49.4148659 22.1828434,49.2953381 22.2571576,49.1651661 L25.6509062,49.1651661 C26.1208144,49.693471 26.7935486,49.9964895 27.5006569,49.9984426 L45.8334224,49.9984426 C48.1334529,49.9957083 49.9972657,48.1318955 50,45.831865 L50,4.16657757 C49.9972657,1.86654707 48.1334529,0.00273429517 45.8334224,5.55095306e-15 Z M3.33466324,5.83322813 L2.50138679,5.83322813 C2.04134163,5.83273986 1.66850095,5.45999684 1.66810841,4.99995168 C1.66762207,4.77554416 1.75970923,4.56090199 1.9227904,4.40670728 C2.07503205,4.25134072 2.28391267,4.1646245 2.50138679,4.16667522 L3.33466324,4.16667522 L3.33466324,5.83322813 Z M6.66786671,7.49978103 C5.74787404,7.49870685 5.00229034,6.7532208 5.00121615,5.83313047 L5.00121615,4.16657757 C5.00229034,3.2465849 5.74777638,2.5010012 6.66786671,2.49992701 L7.50114316,2.49992701 L7.50133847,3.33261754 L7.50114316,3.33330112 L7.50133847,3.33398469 L7.50182673,6.66318437 L7.50114316,6.66650458 L7.50182673,6.6698248 L7.50202204,7.49978103 L6.66786671,7.49978103 Z M22.5008029,4.16657757 L25.0007299,4.16657757 L25.0007299,5.83322813 L22.5008029,5.83322813 L22.5008029,4.16657757 Z M9.16779372,5.83322813 L9.16779372,4.16657757 L15.8342983,4.16657757 L15.8342983,5.83322813 L9.16779372,5.83322813 Z M20.8375702,48.3151909 C10.110442,47.9005546 1.6369589,39.067707 1.66785877,28.3325712 C1.63363869,19.5512846 7.36013165,11.7858864 15.7593981,9.22385179 C16.8011646,8.90257211 17.5089564,7.93609642 17.5008512,6.84599153 L17.5008512,2.49992701 C17.5013395,2.03988185 17.8740825,1.66665056 18.3341277,1.66665056 L20.0007782,1.66665056 C20.4608234,1.66713883 20.8336641,2.03988185 20.8340547,2.49992701 L20.8340547,10.1754842 C20.8357148,11.0001671 20.2302637,11.7004396 19.4139789,11.818112 C10.8869818,12.9812616 4.6480038,20.4455945 5.01625477,29.0436833 C5.38450574,37.6417721 12.2387978,44.5453791 20.8340547,44.9751517 L20.8341523,44.9982956 L20.8340547,44.9986862 L20.8341523,44.9990768 L20.8452848,48.2761296 C20.8444059,48.2897034 20.8378631,48.3014218 20.8375702,48.3151909 Z M25.0007299,47.4986132 L22.5008029,47.4986132 L22.5008029,45.8319627 L25.0007299,45.8319627 L25.0007299,47.4986132 Z M25.5777638,44.1654097 L22.2805945,44.1654097 C21.997009,43.6633736 21.4759305,43.3416057 20.9000684,43.3129932 C13.1681652,42.9164228 7.0081888,36.7006863 6.68124522,28.9654629 C6.35430164,21.2302395 11.9678096,14.516959 19.6387771,13.4693333 C21.2798424,13.2372112 22.5000217,11.8329553 22.5008029,10.1755818 L22.5008029,7.49987869 L25.0007299,7.49987869 L25.0007299,10.1755818 C25.0015111,11.8329553 26.2216903,13.2372112 27.8627557,13.4693333 C35.4051136,14.499479 40.9801462,21.0155974 40.8306388,28.6266056 C40.6811315,36.2375162 34.8546414,42.529813 27.2776165,43.2629947 C26.6136711,43.3261764 26.0021655,43.650874 25.5777638,44.1654097 Z M48.3333494,45.8320603 C48.3318846,47.2120981 47.2134603,48.3305225 45.8334224,48.3319873 L27.5006569,48.3319873 C27.0406117,48.331499 26.6677711,47.958756 26.6672798,47.4987109 L26.6672798,45.7470042 C26.6717749,45.3142043 27.0057495,44.9564023 27.4371822,44.9222236 C35.8564676,44.1080872 42.330888,37.1164945 42.4969964,28.6596125 C42.6631048,20.2026328 36.4681685,12.9623169 28.0873585,11.8182096 C27.2710738,11.7005373 26.6657203,11.0003624 26.6672798,10.1755818 L26.6672798,2.50002466 C26.6677711,2.0399795 27.0405141,1.66674821 27.5005592,1.66674821 L45.8333248,1.66674821 C47.2133626,1.66821301 48.331787,2.78663739 48.3333494,4.16667522 L48.3333494,45.8320603 L48.3333494,45.8320603 Z" id="Shape" fill="#000000" fill-rule="nonzero"></path>
                <path d="M45.000146,3.33330112 L30.0005839,3.33330112 C29.0805912,3.3343753 28.3350075,4.07986135 28.3339334,4.99995168 L28.3339334,8.33315514 C28.3350075,9.25314781 29.0804936,9.99873151 30.0005839,9.9998057 L45.000146,9.9998057 C45.9201386,9.99873151 46.6657223,9.25314781 46.6667965,8.33315514 L46.6667965,4.99985402 C46.6656247,4.07986135 45.9201386,3.33427765 45.000146,3.33330112 Z M30.0005839,8.33315514 L30.0005839,4.99985402 L45.000146,4.99985402 L45.0009272,8.33305749 L30.0005839,8.33305749 L30.0005839,8.33315514 Z" id="Shape" fill="#000000" fill-rule="nonzero"></path>
            </g>
        </g>
    </g>
</svg>