<?xml version="1.0" encoding="UTF-8"?>
<svg width="59px" height="65px" viewBox="0 0 59 65" version="1.1" xmlns="http://www.w3.org/2000/svg" xmlns:xlink="http://www.w3.org/1999/xlink">
    <title>070-vest</title>
    <defs>
        <filter id="filter-1">
            <feColorMatrix in="SourceGraphic" type="matrix" values="0 0 0 0 0.956863 0 0 0 0 0.505882 0 0 0 0 0.125490 0 0 0 1.000000 0"></feColorMatrix>
        </filter>
    </defs>
    <g id="Page-1" stroke="none" stroke-width="1" fill="none" fill-rule="evenodd">
        <g id="070-vest" transform="translate(-106.000000, -2098.000000)" filter="url(#filter-1)">
            <g transform="translate(106.000000, 2098.000000)">
                <path d="M55.2647458,30.3240387 C52.2738208,30.3204831 49.8501468,27.8968091 49.8465912,24.9058841 L49.8465912,4.31709952 C49.8465912,3.8891533 49.5947759,3.50120799 49.2036559,3.32710881 L42.6993814,0.43294791 C41.9374593,0.10189278 41.1065834,-0.0398247203 40.2779931,0.0201131474 C40.0534801,-0.0240783314 39.8205859,0.00500169344 39.6137241,0.102908676 C38.695735,0.276626903 37.8334932,0.670159641 37.1007782,1.24998232 C36.5643851,1.64808659 35.9751654,1.96936372 35.3500083,2.20454366 C33.3988529,2.91579789 31.3342982,3.26450421 29.2578066,3.23364637 C27.1797912,3.26971068 25.1130777,2.92024243 23.1624302,2.20289283 C22.5414638,1.96961769 21.9559267,1.65100729 21.4227082,1.25633167 C20.6887233,0.675493095 19.8250847,0.280690487 18.9056987,0.105575404 C18.6961702,0.00512868044 18.4595934,-0.0244592924 18.2317787,0.0212560304 C17.4042044,-0.0377929282 16.5747252,0.103797586 15.8136921,0.434090793 L9.31195729,3.32723579 C8.92096429,3.50133498 8.66902206,3.88928029 8.66902206,4.31722651 L8.66902206,24.9058841 C8.66546643,27.8968091 6.2417924,30.3204831 3.2508674,30.3240387 C1.45895373,30.3324199 0.00838114252,31.7829925 0,33.5749061 L0,61.7491326 C0.00190480512,63.543713 1.45628701,64.9980952 3.2508674,65 L55.2647458,65 C57.0593262,64.9980952 58.5137084,63.543713 58.5156132,61.7491326 L58.5156132,33.5749061 C58.5072321,31.7829925 57.0566595,30.3324199 55.2647458,30.3240387 Z M2.16728236,33.5749061 C2.16639835,33.282836 2.28652806,33.0033376 2.49897733,32.8029521 C2.6966961,32.6010428 2.96819432,32.4885323 3.2508674,32.491326 C7.438137,32.4866275 10.8314838,29.0932806 10.8361823,24.9060111 L10.8361823,5.02086152 L13.0034696,4.05639519 L13.0034696,37.9093537 C13.0027077,38.5074625 12.5179983,38.9921719 11.9198895,38.9929338 L2.16728236,38.9929338 L2.16728236,33.5749061 Z M28.1742265,62.8327127 L3.2508674,62.8327127 C2.65275859,62.8319508 2.16804919,62.3472414 2.16728726,61.7491326 L2.16728726,59.5818453 L28.1742265,59.5818453 L28.1742265,62.8327127 Z M28.1742265,57.4145581 L2.16728726,57.4145581 L2.16728726,54.1636907 L28.1742265,54.1636907 L28.1742265,57.4145581 Z M28.1742265,51.9965304 L2.16728726,51.9965304 L2.16728726,46.5783757 L28.1742265,46.5783757 L28.1742265,51.9965304 Z M28.1742265,44.4110885 L2.16728726,44.4110885 L2.16728726,41.1602211 L11.9198895,41.1602211 C13.7144699,41.1583163 15.1688521,39.7039341 15.1707569,37.9093537 L15.1707569,3.09205585 L16.6924422,2.41496113 C17.0050842,2.28022791 17.3386791,2.20098802 17.6784963,2.1806701 L18.4214973,4.18681085 L18.4214973,37.9094807 C18.4234021,39.704061 19.8777843,41.1584432 21.6723647,41.1603481 L28.1742265,41.1603481 L28.1742265,44.4110885 L28.1742265,44.4110885 Z M28.1742265,38.9930608 L21.6724917,38.9930608 C21.0743829,38.9922989 20.5896735,38.5075895 20.5889115,37.9094807 L20.5889115,10.0382452 L28.1742265,30.5183288 L28.1742265,38.9930608 L28.1742265,38.9930608 Z M20.3410329,3.12837414 C20.9674598,3.57282867 21.6460784,3.93842426 22.3619041,4.21703376 C24.5675415,5.03483009 26.9057532,5.43610903 29.2578066,5.40067966 C31.6061773,5.43090256 33.9403255,5.03102048 36.144693,4.22071638 C36.8638204,3.94083701 37.5457407,3.5734636 38.1749613,3.12685029 L29.2578066,27.203333 L20.3410329,3.12837414 Z M37.9268287,10.0382452 L37.9268287,37.9093537 C37.9260668,38.5074625 37.4413573,38.9921719 36.8432485,38.9929338 L30.3415137,38.9929338 L30.3415137,30.5182019 L37.9268287,10.0382452 Z M56.348326,61.7491326 C56.347564,62.3472414 55.8628546,62.8319508 55.2647458,62.8327127 L30.3413867,62.8327127 L30.3413867,59.5818453 L56.348326,59.5818453 L56.348326,61.7491326 Z M56.348326,57.4145581 L30.3413867,57.4145581 L30.3413867,54.1636907 L56.348326,54.1636907 L56.348326,57.4145581 Z M56.348326,51.9965304 L30.3413867,51.9965304 L30.3413867,46.5783757 L56.348326,46.5783757 L56.348326,51.9965304 Z M56.348326,44.4110885 L30.3413867,44.4110885 L30.3413867,41.1602211 L36.8431215,41.1602211 C38.6377019,41.1583163 40.0920841,39.7039341 40.0939889,37.9093537 L40.0939889,4.18681085 L40.8376249,2.17901927 C41.1764262,2.19971815 41.5090052,2.27921202 41.8205043,2.41407222 L43.3448564,3.09230983 L43.3448564,37.9096076 C43.3467612,39.704188 44.8011434,41.1585702 46.5957238,41.160475 L56.348326,41.160475 L56.348326,44.4110885 L56.348326,44.4110885 Z M56.3483768,38.9930608 L46.5957238,38.9930608 C45.9976149,38.9922989 45.5129055,38.5075895 45.5121436,37.9094807 L45.5121436,4.05652218 L47.6794309,5.02086152 L47.6794309,24.9058841 C47.6841294,29.0931537 51.0774762,32.4865005 55.2647458,32.491199 C55.5568159,32.4903101 55.8363143,32.6104398 56.0366998,32.8228891 C56.2386092,33.0206078 56.3511197,33.2921061 56.3483768,33.5747791 L56.3483768,38.9930608 Z" id="Shape" fill="#000000" fill-rule="nonzero"></path>
            </g>
        </g>
    </g>
</svg>