<?xml version="1.0" encoding="UTF-8"?>
<svg width="55px" height="55px" viewBox="0 0 55 55" version="1.1" xmlns="http://www.w3.org/2000/svg" xmlns:xlink="http://www.w3.org/1999/xlink">
    <title>calidad</title>
    <defs>
        <filter id="filter-1">
            <feColorMatrix in="SourceGraphic" type="matrix" values="0 0 0 0 1.000000 0 0 0 0 1.000000 0 0 0 0 1.000000 0 0 0 1.000000 0"></feColorMatrix>
        </filter>
    </defs>
    <g id="Page-1" stroke="none" stroke-width="1" fill="none" fill-rule="evenodd">
        <g id="calidad" transform="translate(-1244.000000, -2277.000000)" filter="url(#filter-1)">
            <g transform="translate(1244.000000, 2277.000000)">
                <path d="M27.5,0 C12.3121582,0 0,12.3121582 0,27.5 C0,42.6878418 12.3121582,55 27.5,55 C42.6878418,55 55,42.6878418 55,27.5 C54.9828125,12.3193555 42.6806445,0.0171875 27.5,0 Z M27.5,53.1666309 C13.3247168,53.1666309 1.83336914,41.6752832 1.83336914,27.5 C1.83336914,13.3247168 13.3247168,1.83336914 27.5,1.83336914 C41.6752832,1.83336914 53.1666309,13.3247168 53.1666309,27.5 C53.1507324,41.6687305 41.6687305,53.1507324 27.5,53.1666309 Z" id="Shape" fill="#000000" fill-rule="nonzero"></path>
                <path d="M46.1489504,28.4953805 L45.2356375,28.4953805 L45.2356375,26.7681565 C45.3270438,20.1417675 41.8161463,13.9830973 36.0549865,10.6640949 C35.9457058,10.0501674 35.5148979,9.54142064 34.925681,9.33031312 L31.5354099,8.10160555 L31.5354099,7.91127842 C31.4864958,6.45164203 30.2616098,5.30594948 28.7953643,5.3483628 L26.9686316,5.3483628 C25.5023861,5.30594948 24.2775002,6.45164203 24.2285861,7.91127842 L24.2285861,8.10149898 L20.8428103,9.32860806 C20.2517739,9.53918275 19.8192534,10.048782 19.7091164,10.6639883 C13.9479566,13.9829907 10.4369522,20.141661 10.5283584,26.76805 L10.5283584,28.4952739 L9.61504554,28.4952739 C8.14880008,28.4528606 6.92391409,29.5985532 6.875,31.0581896 L6.875,36.0188433 C6.875,36.1421403 6.90197232,36.2638388 6.95324114,36.376053 C8.01190483,42.8328953 21.8958012,43.5416667 27.8819444,43.5416667 C33.8726901,43.5416667 47.7736047,42.8319362 48.8106477,36.3827666 C48.8619166,36.2683146 48.8888889,36.1443782 48.8888889,36.0190564 L48.8888889,31.0584027 C48.8399748,29.5986597 47.6151958,28.4529672 46.1489504,28.4953805 Z M12.354984,26.7681565 C12.2810242,21.1918702 15.0263144,15.9519067 19.6618078,12.8214198 L19.6618078,24.4450147 C19.6618078,24.9472609 20.070674,25.3543436 20.5751207,25.3543436 C21.0795673,25.3543436 21.4884335,24.9472609 21.4884335,24.4450147 L21.4884335,11.030043 L24.228479,10.0365269 L24.228479,14.9490127 L23.6138954,15.5049683 C23.3714656,15.7233223 23.2647536,16.053997 23.334004,16.3722035 C23.4032544,16.6903034 23.6378708,16.947341 23.9493369,17.0462343 C24.260803,17.1451277 24.6015962,17.0707446 24.8429557,16.8513249 L25.7562685,16.0245848 C25.9463592,15.8519476 26.0548906,15.607698 26.0551047,15.351513 L26.0551047,7.91127842 C26.1057313,7.45720011 26.5113865,7.12663195 26.9684175,7.16712708 L28.7951502,7.16712708 C29.2521813,7.12673852 29.6579435,7.45730668 29.7084631,7.91127842 L29.7084631,15.3514065 C29.7086771,15.6075915 29.8171016,15.8519476 30.0072993,16.0245848 L30.9206121,16.8513249 C31.1619716,17.0708511 31.5028718,17.1451277 31.8142309,17.0462343 C32.125697,16.947341 32.3603134,16.6903034 32.4295638,16.3722035 C32.4988141,16.0541036 32.3919952,15.7234289 32.1496724,15.5050749 L31.5350888,14.9491193 L31.5350888,10.0366335 L34.2751343,11.0301496 L34.2751343,24.4450147 C34.2751343,24.9472609 34.6840005,25.3543436 35.1884471,25.3543436 C35.6928938,25.3543436 36.10176,24.9472609 36.10176,24.4450147 L36.10176,12.8214198 C40.7372534,15.9518001 43.4825436,21.1918702 43.4085837,26.7681565 L43.4085837,33.538623 C43.3526055,33.9897175 42.9504824,34.3174083 42.4952709,34.2827743 L13.2684039,34.2827743 C12.8131924,34.3174083 12.4110694,33.9897175 12.3550911,33.538623 L12.3550911,26.7681565 L12.354984,26.7681565 Z M47.0622632,35.6051535 C47.0622632,35.7111868 47.0546639,35.8171136 47.0400003,35.9221878 C46.656501,39.5001459 39.3157478,41.7229024 27.8819444,41.7229024 C16.4481411,41.7229024 9.10749492,39.5001459 8.72121272,35.900022 C8.70804765,35.8023009 8.70162438,35.7038338 8.70162438,35.6051535 L8.70162438,31.0582961 C8.75760394,30.6072017 9.15972703,30.2795108 9.61493851,30.3141448 L10.5282513,30.3141448 L10.5282513,33.538623 C10.5771654,34.9982594 11.8020514,36.1439519 13.2682969,36.1015386 L42.495485,36.1015386 C43.9617304,36.1439519 45.1866164,34.9982594 45.2355305,33.538623 L45.2355305,30.3141448 L46.1488433,30.3141448 C46.6040548,30.2795108 47.0061779,30.6072017 47.0622632,31.0582961 L47.0622632,35.6051535 L47.0622632,35.6051535 Z" id="Shape" fill="#000000" fill-rule="nonzero"></path>
            </g>
        </g>
    </g>
</svg>