<?xml version="1.0" encoding="UTF-8"?>
<svg width="55px" height="55px" viewBox="0 0 55 55" version="1.1" xmlns="http://www.w3.org/2000/svg" xmlns:xlink="http://www.w3.org/1999/xlink">
    <title>compromiso</title>
    <defs>
        <filter id="filter-1">
            <feColorMatrix in="SourceGraphic" type="matrix" values="0 0 0 0 1.000000 0 0 0 0 1.000000 0 0 0 0 1.000000 0 0 0 1.000000 0"></feColorMatrix>
        </filter>
    </defs>
    <g id="Page-1" stroke="none" stroke-width="1" fill="none" fill-rule="evenodd">
        <g id="compromiso" transform="translate(-508.000000, -2277.000000)" filter="url(#filter-1)">
            <g transform="translate(508.000000, 2277.000000)">
                <path d="M52.25,0 L2.75,0 C1.23191406,0.00161132812 0.00161132812,1.23191406 0,2.75 L0,52.25 C0.00161132812,53.7680859 1.23191406,54.9983887 2.75,55 L52.25,55 C53.7680859,54.9983887 54.9983887,53.7680859 55,52.25 L55,2.75 C54.9983887,1.23191406 53.7680859,0.00161132812 52.25,0 Z M53.1666309,52.25 C53.1659863,52.755957 52.755957,53.1659863 52.25,53.1666309 L2.75,53.1666309 C2.24404297,53.1659863 1.83401367,52.755957 1.83336914,52.25 L1.83336914,2.75 C1.83401367,2.24404297 2.24404297,1.83401367 2.75,1.83336914 L52.25,1.83336914 C52.755957,1.83401367 53.1659863,2.24404297 53.1666309,2.75 L53.1666309,52.25 Z" id="Shape" fill="#000000" fill-rule="nonzero"></path>
                <path d="M50.4166309,3.66663086 L4.58336914,3.66663086 C4.07708984,3.66663086 3.66673828,4.07698242 3.66673828,4.58326172 L3.66673828,50.4166309 C3.66673828,50.9229102 4.07708984,51.3332617 4.58336914,51.3332617 L50.4167383,51.3332617 C50.9230176,51.3332617 51.3333691,50.9229102 51.3333691,50.4166309 L51.3333691,4.58336914 C51.3333691,4.07708984 50.9229102,3.66663086 50.4166309,3.66663086 Z M32.0833691,5.5 L42.1667383,5.5 L42.1667383,7.33336914 L32.0833691,7.33336914 L32.0833691,5.5 Z M36.6666309,34.8333691 L27.5,34.8333691 L27.5,31.1667383 L36.6666309,31.1667383 L36.6666309,34.8333691 L36.6666309,34.8333691 Z M42.1666309,36.6666309 L42.1666309,40.3332617 L33.9340332,40.3332617 C31.7658301,39.3062012 29.6983887,38.0786914 27.7587793,36.6666309 L42.1666309,36.6666309 Z M20.5332617,29.3333691 C20.4099414,29.3333691 20.2880176,29.358291 20.1745801,29.4067383 C19.2338867,28.2127441 18.365166,26.9638574 17.5728223,25.6667383 L30.25,25.6667383 L30.25,29.3333691 L20.5332617,29.3333691 Z M25.6666309,31.1666309 L25.6666309,35.0493945 C24.2430762,33.8529297 22.9076074,32.5552734 21.670752,31.1666309 L25.6666309,31.1666309 Z M18.3333691,14.6666309 L18.3333691,18.3332617 L14.0841895,18.3332617 C13.6620215,17.130459 13.302373,15.9066016 13.0065332,14.6666309 L18.3333691,14.6666309 Z M12.626582,12.8333691 C12.3965918,11.6124121 12.2041992,10.3869434 12.0888281,9.16673828 L14.6667383,9.16673828 L14.6667383,12.8333691 L12.626582,12.8333691 Z M25.6666309,12.8333691 L16.5,12.8333691 L16.5,9.16663086 L25.6666309,9.16663086 L25.6666309,12.8333691 Z M30.25,14.6666309 L30.25,18.3332617 L20.1666309,18.3332617 L20.1666309,14.6666309 L30.25,14.6666309 Z M25.6666309,20.1666309 L25.6666309,23.8332617 L16.555,23.8332617 C16.5411426,23.8332617 16.5297559,23.840459 16.5161133,23.8411035 C15.8731934,22.6479688 15.2944043,21.4214258 14.7822168,20.1666309 L25.6666309,20.1666309 Z M32.0833691,29.3333691 L32.0833691,25.6667383 L42.1667383,25.6667383 L42.1667383,29.3333691 L32.0833691,29.3333691 Z M36.6666309,23.8333691 L27.5,23.8333691 L27.5,20.1667383 L36.6666309,20.1667383 L36.6666309,23.8333691 L36.6666309,23.8333691 Z M32.0833691,18.3333691 L32.0833691,14.6667383 L42.1667383,14.6667383 L42.1667383,18.3333691 L32.0833691,18.3333691 Z M36.6666309,12.8333691 L27.5,12.8333691 L27.5,9.16663086 L36.6666309,9.16663086 L36.6666309,12.8333691 L36.6666309,12.8333691 Z M20.1666309,5.5 L30.25,5.5 L30.25,7.33336914 L20.1666309,7.33336914 L20.1666309,5.5 Z M18.3333691,5.5 L18.3333691,7.33336914 L11.9593848,7.33336914 C11.9314551,6.72407227 11.9167383,6.11166016 11.9167383,5.5 L18.3333691,5.5 L18.3333691,5.5 Z M49.5,49.5 L5.5,49.5 L5.5,5.5 L10.0833691,5.5 C10.0833691,6.75640625 10.1401953,8.01818359 10.2525586,9.2512793 C10.4292676,11.1462012 10.7327344,13.0271582 11.1607031,14.881582 C11.1705859,14.9241211 11.1836914,14.9658008 11.1995898,15.0064062 C11.6438867,16.8859668 12.2268652,18.7300781 12.9437988,20.5233789 C13.7219629,22.4726562 14.6507324,24.3583398 15.7215137,26.163457 C16.9068066,28.1603223 18.2653711,30.0492285 19.7816309,31.8080469 C21.560752,33.8821484 23.5442969,35.7714844 25.7024023,37.4476953 C32.5308887,42.7191016 40.8749902,45.6519336 49.5,45.8123145 L49.5,49.5 L49.5,49.5 Z M49.5,43.9790527 C45.8011426,43.8993457 42.1329004,43.2889746 38.6076367,42.1666309 L49.5,42.1666309 L49.5,43.9790527 Z M49.5,40.3333691 L44,40.3333691 L44,36.6667383 L49.5,36.6667383 L49.5,40.3333691 Z M49.5,34.8333691 L38.5,34.8333691 L38.5,31.1667383 L49.5,31.1667383 L49.5,34.8333691 L49.5,34.8333691 Z M49.5,29.3333691 L44,29.3333691 L44,25.6667383 L49.5,25.6667383 L49.5,29.3333691 Z M49.5,23.8333691 L38.5,23.8333691 L38.5,20.1667383 L49.5,20.1667383 L49.5,23.8333691 L49.5,23.8333691 Z M49.5,18.3333691 L44,18.3333691 L44,14.6667383 L49.5,14.6667383 L49.5,18.3333691 Z M49.5,12.8333691 L38.5,12.8333691 L38.5,9.16663086 L49.5,9.16663086 L49.5,12.8333691 L49.5,12.8333691 Z M49.5,7.33336914 L44,7.33336914 L44,5.5 L49.5,5.5 L49.5,7.33336914 Z" id="Shape" fill="#000000" fill-rule="nonzero"></path>
            </g>
        </g>
    </g>
</svg>