<?xml version="1.0" encoding="UTF-8"?>
<svg width="55px" height="53px" viewBox="0 0 55 53" version="1.1" xmlns="http://www.w3.org/2000/svg" xmlns:xlink="http://www.w3.org/1999/xlink">
    <title>comunicacion</title>
    <defs>
        <filter id="filter-1">
            <feColorMatrix in="SourceGraphic" type="matrix" values="0 0 0 0 1.000000 0 0 0 0 1.000000 0 0 0 0 1.000000 0 0 0 1.000000 0"></feColorMatrix>
        </filter>
    </defs>
    <g id="Page-1" stroke="none" stroke-width="1" fill="none" fill-rule="evenodd">
        <g id="comunicacion" transform="translate(-876.000000, -2277.000000)" filter="url(#filter-1)">
            <g transform="translate(876.000000, 2277.000000)">
                <path d="M55,32.0664721 L55,0.916822984 C55,0.572616103 54.8072261,0.257504688 54.5007844,0.100861569 C54.1946646,-0.0564257304 53.8261831,-0.0280818076 53.5477558,0.174190733 L21.3131942,23.4660241 L1.46832558,10.2324183 C1.04746457,9.95177048 0.478803101,10.0654683 0.198229093,10.4864399 C0.0724323313,10.6779761 0.0237021862,10.9100957 0.0620208245,11.1359882 C0.0546147011,11.1648689 0.0487112694,11.1941791 0.0443105295,11.223704 L0.0443105295,37.3884731 C-0.0804128815,37.7727265 0.0644895323,38.1931613 0.399375111,38.4188391 L20.9988096,52.0700883 C21.0618153,52.0995058 21.124821,52.128816 21.1877194,52.1582336 C21.2883998,52.1981727 21.3954129,52.2198601 21.503714,52.2222222 L54.0840021,52.2222222 C54.3269015,52.2222222 54.559926,52.1258098 54.7317695,51.9539211 C54.9035057,51.7821398 55,51.549054 55,51.3059834 L55,46.441565 C54.9957066,46.4126842 54.9899105,46.3841256 54.982719,46.355889 C54.9670481,46.154368 54.8838634,45.9641202 54.7466891,45.8158514 C54.7345602,45.8030752 54.7228607,45.7911578 54.7100878,45.7789184 C54.6746672,45.7357583 54.6352753,45.6960339 54.5922339,45.6604966 L45.3593741,39.5025647 L54.6203557,32.8091043 C54.8585323,32.6368935 55,32.3606477 55,32.0664721 Z M1.87619905,12.7063918 L23.7339232,27.2818247 L12.0582233,31.9527743 L1.87619905,25.1630091 L1.87619905,12.7063918 Z M12.8673155,34.6944047 L24.7743225,42.6345681 L24.7743225,45.9297639 L12.8673155,37.9893857 L12.8673155,34.6944047 Z M21.7809606,50.3898519 L1.87619905,37.1988694 L1.87619905,27.3650313 L11.035427,33.4729319 L11.035427,38.4796067 C11.0355343,38.7859143 11.1884868,39.0719303 11.4433004,39.2418865 L25.182196,48.4035227 C25.4631993,48.5909791 25.8245967,48.6084793 26.1224516,48.4490448 C26.4203066,48.2896102 26.606211,47.9791154 26.606211,47.641243 L26.606211,43.8560409 L36.4040829,50.3898519 L21.7809606,50.3898519 L21.7809606,50.3898519 Z M53.1680041,46.9129974 L53.1680041,50.3898519 L39.7064626,50.3898519 L26.9278944,41.8685307 L32.1476013,32.8930625 L53.1680041,46.9129974 Z M53.1680041,31.5985826 L43.7327103,38.4177654 L39.413545,35.5369922 L53.1680041,25.611251 L53.1680041,31.5985826 Z M53.1680041,23.3522189 L37.7872033,34.452193 L32.3535774,30.8282506 C32.3453126,30.8228825 32.3357598,30.8226678 32.3273876,30.8175143 C32.3190155,30.8123609 32.3146148,30.8036644 32.3061353,30.7987257 C32.2578345,30.7771457 32.207709,30.7600749 32.1562955,30.7477281 C32.1024132,30.7233567 32.0463843,30.7043533 31.9888527,30.6909329 C31.9292817,30.6851353 31.8692813,30.6854574 31.8097104,30.6918992 C31.7528227,30.6902887 31.6959351,30.6940465 31.6397989,30.703065 C31.5839846,30.719921 31.5298877,30.7421452 31.4782595,30.7695229 C31.4235186,30.7895998 31.3709244,30.8149376 31.3212282,30.8453214 C31.2743228,30.8836501 31.2313887,30.9263807 31.1929627,30.9731912 C31.1532488,31.0062591 31.1165401,31.04287 31.0833736,31.082487 C31.0778995,31.090754 31.0778995,31.1004167 31.0726401,31.1087911 C31.0673807,31.1171654 31.0587938,31.1214599 31.0538564,31.1299416 L25.4007303,40.8505115 L13.9077148,33.1863791 L25.8989799,28.3868082 L26.0179072,28.3411788 L26.0228446,28.3380652 C26.0411989,28.3309793 26.0574065,28.3208871 26.0753315,28.3126201 C26.162917,28.2727883 26.2435256,28.2191067 26.3140448,28.1538297 C26.3218803,28.1464217 26.3326138,28.1439523 26.3403419,28.1364369 C26.3563348,28.1203324 26.3622383,28.098645 26.3768359,28.0816816 C26.4039916,28.0541966 26.4293227,28.0249937 26.4526144,27.9941805 C26.4669974,27.9724931 26.4685,27.9472627 26.4808436,27.9249311 L26.4925431,27.9072161 C26.5024179,27.8885349 26.5189476,27.8740409 26.527427,27.8547155 C26.5403072,27.8159573 26.5503967,27.7763402 26.5579102,27.7361863 C26.5729371,27.6866918 26.5836706,27.635909 26.5897887,27.5844819 C26.5930088,27.5560306 26.6024543,27.5299414 26.6028836,27.501168 L26.605889,27.485815 C26.6015956,27.4574711 26.5957995,27.4293419 26.5887154,27.4015348 C26.5838853,27.3438807 26.5733665,27.2867634 26.5574809,27.2311492 C26.5503967,27.2067777 26.5543681,27.1818694 26.54503,27.1576053 C26.5429906,27.1522371 26.5383752,27.1490162 26.5362285,27.1437554 C26.5249583,27.1158409 26.5038133,27.0942609 26.4900744,27.0674201 C26.4638846,27.0165298 26.4327575,26.9683237 26.3971222,26.9235532 C26.3797339,26.8931694 26.3608429,26.8637518 26.3403419,26.8354079 C26.3145815,26.8122174 26.2824883,26.8015884 26.2553325,26.7812968 C26.2336508,26.7639039 26.2213073,26.7392103 26.1976935,26.7235353 L22.9383552,24.5499644 L53.1680041,2.70903929 L53.1680041,23.3522189 L53.1680041,23.3522189 Z" id="Shape" fill="#000000" fill-rule="nonzero"></path>
            </g>
        </g>
    </g>
</svg>