<?xml version="1.0" encoding="UTF-8"?>
<svg width="55px" height="55px" viewBox="0 0 55 55" version="1.1" xmlns="http://www.w3.org/2000/svg" xmlns:xlink="http://www.w3.org/1999/xlink">
    <title>honestidad</title>
    <defs>
        <filter id="filter-1">
            <feColorMatrix in="SourceGraphic" type="matrix" values="0 0 0 0 1.000000 0 0 0 0 1.000000 0 0 0 0 1.000000 0 0 0 1.000000 0"></feColorMatrix>
        </filter>
    </defs>
    <g id="Page-1" stroke="none" stroke-width="1" fill="none" fill-rule="evenodd">
        <g id="honestidad" transform="translate(-135.000000, -2277.000000)" filter="url(#filter-1)">
            <g transform="translate(135.000000, 2277.000000)">
                <path d="M6.44292554,49.5 L24.3570745,49.5 C24.6071144,49.5 24.8469891,49.4007789 25.0238844,49.2238827 C25.2006691,49.047097 25.3,48.8072209 25.3,48.5570691 L25.3,30.6428204 C25.2985636,30.2619577 25.0689645,29.9191039 24.7173838,29.7727032 C24.6032472,29.7250816 24.4808238,29.7004421 24.3571849,29.7 L6.44292554,29.7 C6.19288564,29.7 5.95301086,29.7992211 5.77611565,29.9761173 C5.59933092,30.152903 5.5,30.3927791 5.5,30.6429309 L5.5,48.5571796 C5.50209932,49.0770401 5.92306795,49.4980111 6.44292554,49.5 Z M23.4142594,47.6142488 L8.71902891,47.6142488 L23.4142594,32.9189364 L23.4142594,47.6142488 Z M7.38585108,31.5857512 L22.0810816,31.5857512 L7.38585108,46.2810636 L7.38585108,31.5857512 Z" id="Shape" fill="#000000" fill-rule="nonzero"></path>
                <path d="M54.4335645,0.0706835938 C54.3225977,0.0243847656 54.2035743,0 54.0833692,0 L25.6666309,0 C25.4234278,0.00139648437 25.1904298,0.0980761719 25.0176954,0.269306641 L0.269199308,25.0179102 C0.0980762614,25.1906445 0.0013965739,25.4235352 0,25.6666309 L0,54.0832617 C0,54.3263574 0.0964649333,54.5595703 0.268447355,54.7315527 C0.440322355,54.9034277 0.673535246,55 0.916738371,55 L29.3333692,55 C29.5765724,54.9987109 29.8095704,54.9019238 29.9823048,54.7306934 L54.7308009,29.9820898 C54.9020313,29.8094629 54.998711,29.5764648 55,29.3333691 L55,0.916630859 C54.9986036,0.546347656 54.7753809,0.213017578 54.4335645,0.0706835938 Z M28.4167384,53.1666309 L1.83336923,53.1666309 L1.83336923,26.5833691 L28.4167384,26.5833691 L28.4167384,53.1666309 L28.4167384,53.1666309 Z M28.9537403,24.75 L3.12952157,24.75 L26.0462599,1.83336914 L51.8704786,1.83336914 L28.9537403,24.75 Z M53.1666309,28.9537402 L30.2500001,51.8704785 L30.2500001,26.0462598 L53.1666309,3.12952148 L53.1666309,28.9537402 Z" id="Shape" fill="#000000" fill-rule="nonzero"></path>
            </g>
        </g>
    </g>
</svg>