<?xml version="1.0" encoding="UTF-8"?>
<svg width="55px" height="55px" viewBox="0 0 55 55" version="1.1" xmlns="http://www.w3.org/2000/svg" xmlns:xlink="http://www.w3.org/1999/xlink">
    <title>respeto</title>
    <defs>
        <filter id="filter-1">
            <feColorMatrix in="SourceGraphic" type="matrix" values="0 0 0 0 1.000000 0 0 0 0 1.000000 0 0 0 0 1.000000 0 0 0 1.000000 0"></feColorMatrix>
        </filter>
    </defs>
    <g id="Page-1" stroke="none" stroke-width="1" fill="none" fill-rule="evenodd">
        <g id="respeto" transform="translate(-323.000000, -2277.000000)" filter="url(#filter-1)">
            <g transform="translate(323.000000, 2277.000000)">
                <path d="M55,14.6666022 L55,4.58336019 C54.9989258,3.57123326 54.1786539,2.75106885 53.166527,2.74999463 C53.1649157,1.23191166 51.9346154,0.00161132498 50.4165324,0 L48.5831668,0 C47.0650839,0.00161132498 45.8347835,1.23191166 45.8331722,2.74999463 C44.9530665,2.75149853 44.198107,3.37798168 44.034289,4.24272609 L35.5103799,12.7662055 C34.9792871,13.3005209 34.8291117,14.1054314 35.1319333,14.7952934 L27.6099461,22.3169584 L19.9258595,14.6331941 C20.1442478,13.9781368 19.9751661,13.2559409 19.4888682,12.7657758 L10.9653887,4.24272609 C10.8016781,3.37798168 10.0466112,2.75149853 9.16650553,2.74999463 C9.16500163,1.23191166 7.9347013,0.00161132498 6.41661833,0 L4.58336019,0 C3.06527722,0.00161132498 1.83497688,1.23191166 1.83336556,2.74999463 C0.82123863,2.75096142 0.000966794987,3.57123326 0,4.58336019 L0,14.6667096 C0.000966794987,15.6788366 0.82123863,16.499001 1.83336556,16.5000752 L1.83336556,38.5000322 C0.82123863,38.5008916 0.000966794987,39.3211634 0,40.3332904 L0,50.4166398 C0.000966794987,51.4287667 0.82123863,52.2489312 1.83336556,52.2500054 C1.83497688,53.7680883 3.06527722,54.9983887 4.58336019,55 L6.41672575,55 C7.93480872,54.9983887 9.16510905,53.7680883 9.16672038,52.2500054 C10.0468261,52.2485015 10.8017855,51.6220183 10.9656036,50.7572739 L19.4895127,42.2337945 C19.9755958,41.7437368 20.1443552,41.0217558 19.9258595,40.3669133 L27.6100535,32.6830416 L35.1319333,40.2045992 C34.8291117,40.8947834 34.979502,41.6999088 35.510917,42.2342242 L44.0343964,50.7572739 C44.198107,51.6220183 44.9531739,52.2485015 45.8332796,52.2500054 C45.8348909,53.7680883 47.0651913,54.9983887 48.5832743,55 L50.4166398,55 C51.9347228,54.9983887 53.1650231,53.7680883 53.1666344,52.2500054 C54.1787614,52.2490386 54.9989258,51.4287667 55,50.4166398 L55,40.3332904 C54.9990332,39.3211634 54.1787614,38.500999 53.1666344,38.4999248 L53.1666344,16.4999678 C54.1786539,16.499001 54.9989258,15.6787291 55,14.6666022 Z M48.5832743,1.83336556 L50.4166398,1.83336556 C50.9225959,1.83401009 51.3326244,2.24403859 51.3332689,2.74999463 L47.6666452,2.74999463 C47.6672897,2.24403859 48.0772108,1.83401009 48.5832743,1.83336556 Z M43.9999141,6.86950807 L43.9999141,14.6445808 L40.6913268,17.9528458 L36.9872129,14.2422866 L36.9848496,14.2387417 L36.9813047,14.2363784 L36.8071742,14.0619257 L43.9999141,6.86950807 Z M10.9999785,6.86950807 L18.1927184,14.0619257 L18.128158,14.1265935 L18.1251501,14.1286345 L18.1231091,14.1316423 L14.3085658,17.9532755 L10.9999785,14.6446882 L10.9999785,6.86950807 Z M4.58336019,1.83336556 L6.41672575,1.83336556 C6.92268179,1.83401009 7.33271029,2.24403859 7.33335482,2.74999463 L3.6666237,2.74999463 C3.66726823,2.24403859 4.07729672,1.83401009 4.58336019,1.83336556 Z M1.83336556,4.58336019 L9.16672038,4.58336019 L9.16672038,4.65683661 L9.16811686,14.6667096 L1.83336556,14.6667096 L1.83336556,4.58336019 Z M7.33335482,16.4999678 L7.33335482,38.4999248 L3.6666237,38.4999248 L3.6666237,16.4999678 L7.33335482,16.4999678 Z M6.41661833,53.166527 L4.58336019,53.166527 C4.07740415,53.1658825 3.66737565,52.755854 3.66673112,52.2498979 L7.33335482,52.2498979 C7.33271029,52.755854 6.92268179,53.1658825 6.41661833,53.166527 Z M9.16661296,50.4165324 L1.83336556,50.4165324 L1.83336556,40.3331829 L9.16672038,40.3331829 L9.16672038,50.4165324 L9.16661296,50.4165324 Z M10.0343652,38.7283033 C9.76881881,38.5805985 9.47040142,38.5019658 9.16661296,38.4999248 L9.16661296,16.4999678 C9.47040142,16.4978193 9.76892623,16.4192941 10.0343652,16.2715893 L13.0123086,19.2495327 C13.3550911,19.5944637 13.8217308,19.7877153 14.3080287,19.7862114 L14.3093178,19.7862114 C14.4325304,19.7861039 14.5555282,19.773643 14.6762702,19.748936 L22.4270656,27.4999463 L14.6763776,35.2509565 C14.5556356,35.226357 14.4327452,35.2137886 14.3094252,35.2136812 L14.3081361,35.2136812 C13.8218382,35.2120699 13.3551985,35.4054289 13.012416,35.7503599 L10.0343652,38.7283033 Z M10.9999785,48.1303845 L10.9999785,40.3553118 L14.3085658,37.0470468 L18.1231091,40.8682503 L18.1251501,40.8712581 L18.128158,40.8732991 L18.1927184,40.9379669 L10.9999785,48.1303845 Z M28.2581284,30.7387095 C28.0862537,30.5667274 27.8531487,30.4701553 27.6100535,30.4701553 C27.3669583,30.4701553 27.1338533,30.5667274 26.9619786,30.7387095 L18.7744067,38.9258517 L16.1864039,36.3334447 L24.3712903,28.1481286 C24.5432724,27.976254 24.6398445,27.7431489 24.6398445,27.5000537 C24.6398445,27.2569585 24.5432724,27.0238535 24.3712903,26.8519788 L16.1864039,18.6666628 L18.7744067,16.0742557 L26.9619786,24.2613979 C27.1338533,24.43338 27.3669583,24.5299521 27.6100535,24.5299521 C27.8531487,24.5299521 28.0862537,24.43338 28.2581284,24.2613979 L36.3354857,16.1843629 L38.9237033,18.7769848 L30.8482796,26.8519788 C30.6762975,27.0238535 30.5797254,27.2569585 30.5797254,27.5000537 C30.5797254,27.7431489 30.6762975,27.976254 30.8482796,28.1481286 L38.9237033,36.2231226 L36.3353783,38.8157445 L28.2581284,30.7387095 Z M43.9999141,48.1303845 L36.8071742,40.9379669 L36.9811973,40.7635141 L36.9848496,40.7611509 L36.9872129,40.7574985 L40.6913268,37.0466171 L43.9999141,40.3552044 L43.9999141,48.1303845 L43.9999141,48.1303845 Z M41.987584,35.7503599 C41.6448015,35.4054289 41.1781618,35.2121773 40.6917565,35.2136812 L40.6904674,35.2136812 C40.6336413,35.2136812 40.5791786,35.2249605 40.5233193,35.2301167 L32.7927192,27.4999463 L40.5233193,19.7697758 C40.5791786,19.7748247 40.6336413,19.7862114 40.6904674,19.7862114 L40.6917565,19.7862114 C41.1780543,19.7878227 41.6446941,19.5944637 41.9874766,19.2495327 L44.96542,16.2715893 C45.2309663,16.4192941 45.5293837,16.4979268 45.8331722,16.4999678 L45.8331722,38.4999248 C45.5293837,38.5019658 45.2308589,38.5805985 44.96542,38.7283033 L41.987584,35.7503599 Z M50.4165324,53.166527 L48.5831668,53.166527 C48.0772108,53.1658825 47.6671823,52.755854 47.6665378,52.2498979 L51.3331615,52.2498979 C51.3326244,52.755854 50.9225959,53.1658825 50.4165324,53.166527 Z M53.166527,50.4165324 L45.8331722,50.4165324 L45.8331722,50.343056 L45.8318831,40.3331829 L53.166527,40.3331829 L53.166527,50.4165324 Z M47.6665378,38.4999248 L47.6665378,16.4999678 L51.3331615,16.4999678 L51.3331615,38.4999248 L47.6665378,38.4999248 Z M45.8332796,14.6666022 L45.8332796,4.58336019 L53.1666344,4.58336019 L53.1666344,14.6667096 L45.8332796,14.6667096 L45.8332796,14.6666022 Z" id="Shape" fill="#000000" fill-rule="nonzero"></path>
            </g>
        </g>
    </g>
</svg>