<?xml version="1.0" encoding="UTF-8"?>
<svg width="75px" height="55px" viewBox="0 0 75 55" version="1.1" xmlns="http://www.w3.org/2000/svg" xmlns:xlink="http://www.w3.org/1999/xlink">
    <title>servicio</title>
    <defs>
        <filter id="filter-1">
            <feColorMatrix in="SourceGraphic" type="matrix" values="0 0 0 0 1.000000 0 0 0 0 1.000000 0 0 0 0 1.000000 0 0 0 1.000000 0"></feColorMatrix>
        </filter>
    </defs>
    <g id="Page-1" stroke="none" stroke-width="1" fill="none" fill-rule="evenodd">
        <g id="servicio" transform="translate(-1051.000000, -2277.000000)" filter="url(#filter-1)">
            <g transform="translate(1051.000000, 2277.000000)">
                <path d="M16.8055556,42.7777778 C14.8368309,42.7777778 13.2407407,44.3737287 13.2407407,46.3425926 C13.2407407,48.3114565 14.8366916,49.9074074 16.8055556,49.9074074 C18.7744195,49.9074074 20.3703704,48.3113173 20.3703704,46.3425926 C20.3681424,44.3747034 18.7734447,42.7800058 16.8055556,42.7777778 Z M16.8055556,47.530957 C16.1492676,47.530957 15.6173304,46.9990198 15.6173304,46.3427318 C15.6173304,45.6864439 16.1492676,45.1545067 16.8055556,45.1545067 C17.4618435,45.1545067 17.9937807,45.6864439 17.9937807,46.3427318 C17.9930845,46.9986021 17.461565,47.5302608 16.8055556,47.530957 Z" id="Shape" fill="#000000" fill-rule="nonzero"></path>
                <path d="M56.5277778,42.7777778 C54.5590531,42.7777778 52.962963,44.3737287 52.962963,46.3425926 C52.962963,48.3114565 54.5590531,49.9074074 56.5277778,49.9074074 C58.4965025,49.9074074 60.0925926,48.3113173 60.0925926,46.3425926 C60.0905038,44.3747034 58.495667,42.7800058 56.5277778,42.7777778 Z M56.5277778,47.530957 C55.8714898,47.530957 55.3395526,46.9990198 55.3395526,46.3427318 C55.3395526,45.6864439 55.8716291,45.1545067 56.5277778,45.1545067 C57.1840658,45.1545067 57.716003,45.6864439 57.716003,46.3427318 C57.715446,46.9986021 57.1837873,47.5302608 56.5277778,47.530957 Z" id="Shape" fill="#000000" fill-rule="nonzero"></path>
                <path d="M73.407351,25.1054641 L64.8709742,15.5357895 C64.1637603,14.7430388 63.1489737,14.2904308 62.0839415,14.2925992 L49.5678528,14.2925992 C49.2392235,14.2924546 48.9239542,14.4224114 48.6914594,14.6538471 C48.4591099,14.8851384 48.3285585,15.1989717 48.3285585,15.5262487 L48.3285585,37.7302067 L43.3718168,37.7302067 L43.3718168,35.2630521 C44.7399199,35.261462 45.8486628,34.1577691 45.8502602,32.7958975 L45.8502602,2.46653406 C45.850115,1.6680011 45.4616556,0.918906628 44.8078821,0.45632417 C44.1541086,-0.00640284466 43.3157624,-0.125373271 42.5580125,0.13685316 L1.6543287,14.0721497 C0.663793584,14.4206767 0.00116174769,15.3523467 0,16.3982167 L0,32.7958975 C0.00159740307,34.1577691 1.11019513,35.261462 2.47844347,35.2630521 L16.1096647,35.2630521 L16.1096647,37.7302067 L3.71759259,37.7302067 C3.38896322,37.7300622 3.07369394,37.8600189 2.84119918,38.0914547 C2.60884965,38.3227459 2.47829825,38.6365792 2.47829825,38.9638563 L2.47829825,43.898021 C2.48047653,45.9409008 4.14366356,47.5965123 6.19589084,47.5986807 L8.77322808,47.5986807 C9.38401693,51.8457659 13.0385847,55 17.3486686,55 C21.6587525,55 25.3133203,51.8457659 25.9241092,47.5986807 L48.4277427,47.5986807 C49.0385315,51.8457659 52.6930993,55 57.0031832,55 C61.3132671,55 64.9678349,51.8457659 65.5786238,47.5986807 L70.6342593,47.5986807 C72.6864865,47.5965123 74.3496736,45.9409008 74.3518519,43.898021 L74.3518519,27.5652463 C74.3509805,26.6577174 74.0147998,25.7821355 73.407351,25.1054641 Z M37.1759259,4.57764476 L43.371962,2.46667862 L43.3737046,32.7958975 L37.1759259,32.7958975 L37.1759259,4.57764476 Z M28.5015916,7.53296843 L34.6976277,5.42185774 L34.6976277,32.7958975 L28.5015916,32.7958975 L28.5015916,7.53296843 Z M26.0231481,8.37747053 L26.0231481,32.7958975 L19.8271121,32.7958975 L19.8271121,10.5919395 C19.8271121,10.5576795 19.8102667,10.5286235 19.8075076,10.4950863 L26.0231481,8.37747053 Z M8.67433431,32.7958975 L2.47844347,32.7958975 L2.46697121,16.4031316 L8.67447953,14.2882624 L8.67447953,32.7958975 L8.67433431,32.7958975 Z M11.1527778,32.7958975 L11.1527778,13.4439049 L17.3488138,11.3327942 L17.3488138,32.7958975 L11.1527778,32.7958975 L11.1527778,32.7958975 Z M8.7733733,45.1313815 L6.19603606,45.1313815 C5.51191189,45.1306587 4.95746781,44.5788846 4.95688694,43.8978765 L4.95688694,40.1972168 L11.289864,40.1972168 C9.92858615,41.5216482 9.04406051,43.2558987 8.7733733,45.1313815 Z M17.3488138,52.5327008 C13.926886,52.5327008 11.1527778,49.7712281 11.1527778,46.3648865 C11.1527778,42.958545 13.926886,40.1970722 17.3488138,40.1970722 C20.7707416,40.1970722 23.5448499,42.958545 23.5448499,46.3648865 C23.5407838,49.769638 20.768999,52.5286532 17.3488138,52.5327008 Z M29.7407407,45.1313815 L25.9241092,45.1313815 C25.6534219,43.2558987 24.7690415,41.5216482 23.4077637,40.1972168 L29.7407407,40.1972168 L29.7407407,45.1313815 Z M40.8935185,45.1313815 L32.2191842,45.1313815 L32.2191842,40.1972168 L40.8935185,40.1972168 L40.8935185,45.1313815 Z M40.8935185,37.7300622 L18.587963,37.7300622 L18.587963,35.2629075 L40.8935185,35.2629075 L40.8935185,37.7300622 Z M48.4277427,45.1313815 L43.371962,45.1313815 L43.371962,40.1972168 L50.9440882,40.1972168 C49.5828103,41.5216482 48.6984299,43.2558987 48.4277427,45.1313815 Z M57.003038,52.5327008 C53.5811102,52.5327008 50.807002,49.7712281 50.807002,46.3648865 C50.807002,42.958545 53.580965,40.1970722 57.003038,40.1970722 C60.4249658,40.1970722 63.1990741,42.958545 63.1990741,46.3648865 C63.195008,49.769638 60.4233684,52.5286532 57.003038,52.5327008 Z M71.8734084,43.8978765 C71.8726823,44.5788846 71.3183834,45.1308033 70.6342593,45.1313815 L65.5784786,45.1313815 C64.960574,40.8881993 61.3103628,37.7377237 57.003038,37.7300622 L50.807002,37.7300622 L50.807002,16.7596092 L55.7638889,16.7596092 L55.7638889,29.0950932 C55.7660672,31.137973 57.4292542,32.7935846 59.4814815,32.7957529 L71.8734084,32.7957529 L71.8734084,43.8978765 Z M71.8734084,30.3287428 L59.4814815,30.3287428 C58.7973573,30.3280201 58.2429132,29.7762459 58.2423324,29.0952378 L58.2423324,16.7597336 L62.0839415,16.7597336 C62.4397267,16.75773 62.7792475,16.9077802 63.0163893,17.1717413 L71.5558156,26.7450298 C71.7591215,26.9705388 71.8721014,27.2623994 71.8735536,27.5653909 L71.8735536,30.3287428 L71.8734084,30.3287428 Z" id="Shape" fill="#000000" fill-rule="nonzero"></path>
            </g>
        </g>
    </g>
</svg>