<?xml version="1.0" encoding="UTF-8"?>
<svg width="64px" height="55px" viewBox="0 0 64 55" version="1.1" xmlns="http://www.w3.org/2000/svg" xmlns:xlink="http://www.w3.org/1999/xlink">
    <title>trabajo en equipo</title>
    <defs>
        <filter id="filter-1">
            <feColorMatrix in="SourceGraphic" type="matrix" values="0 0 0 0 1.000000 0 0 0 0 1.000000 0 0 0 0 1.000000 0 0 0 1.000000 0"></feColorMatrix>
        </filter>
    </defs>
    <g id="Page-1" stroke="none" stroke-width="1" fill="none" fill-rule="evenodd">
        <g id="trabajo-en-equipo" transform="translate(-688.000000, -2277.000000)" filter="url(#filter-1)">
            <g transform="translate(688.000000, 2277.000000)">
                <path d="M15.5,36 C11.3578173,36 8,39.3579428 8,43.5 C8,47.6420572 11.3579428,51 15.5,51 C19.6420572,51 23,47.6420572 23,43.5 C22.9952288,39.3598262 19.6401738,36.0047712 15.5,36 Z M15.5,48.8572146 C12.5413339,48.8572146 10.1427854,46.4586661 10.1427854,43.5 C10.1427854,40.5413339 12.5413339,38.1427854 15.5,38.1427854 C18.4586661,38.1427854 20.8572146,40.5413339 20.8572146,43.5 C20.853699,46.4572849 18.4572849,48.853699 15.5,48.8572146 Z" id="Shape" fill="#000000" fill-rule="nonzero"></path>
                <path d="M61.864166,36.6666073 L59.6270845,36.6666073 C57.7171488,32.407016 53.664746,29.5329135 49.0487864,29.1640143 L49.0487864,28.5983436 C49.0487864,28.0484703 48.9101187,27.5076962 48.6456737,27.0270783 L43.8795325,18.3638241 C43.5025764,17.6796102 42.788087,17.2551045 42.0126489,17.2548517 L40.5050749,17.2548517 C38.7364352,17.2567474 37.303076,18.7041617 37.3011988,20.4901443 L37.3011988,25.8823408 C37.300573,26.4777104 36.8228701,26.960224 36.2332817,26.9607295 L33.0294056,26.9607295 C32.4398173,26.9600976 31.9619892,26.4777104 31.9614886,25.8823408 L31.9614886,20.4901443 C31.9596113,18.7041617 30.5262522,17.2567474 28.7576124,17.2548517 L20.2139009,17.2548517 L20.2139009,6.47058519 L37.3784172,6.47058519 C39.1478079,6.47058519 40.5822934,5.02215986 40.5822934,3.2352926 C40.5822934,1.44842533 39.147933,0 37.3784172,0 L17.0100247,0 C15.2413849,0.00189567925 13.8080258,1.44930998 13.8061485,3.2352926 L13.8061485,18.2069882 C13.8074,18.5817008 13.6149172,18.9298739 13.2982841,19.1253816 L1.01705079,26.7565017 C0.304313491,27.2000906 -0.0867846744,28.022689 0.0163400899,28.8617167 L2.06669569,45.4278049 C2.13352654,45.9674416 2.58782617,46.3723587 3.1263527,46.3724851 L4.6496957,46.3724851 C6.07767333,51.4760328 10.6900035,55 15.9418574,55 C21.1937113,55 25.8060415,51.4760328 27.2340191,46.3724851 L35.912769,46.3724851 C37.6483688,51.3416923 42.1969969,54.7497445 47.4096784,54.9868307 C52.6223599,55.223917 57.4559578,52.2423927 59.6269593,47.4508738 L61.8640408,47.4508738 C63.0430923,47.4493573 63.998373,46.4845829 64,45.29397 L64,38.8233848 C63.9984982,37.6328982 63.0430923,36.6681238 61.864166,36.6666073 Z M15.9418574,52.8430703 C10.6335602,52.8430703 6.33022888,48.4975415 6.33022888,43.1371925 C6.33022888,37.7768434 10.6335602,33.4313147 15.9418574,33.4313147 C21.2501546,33.4313147 25.5534859,37.7768434 25.5534859,43.1371925 C25.5476038,48.4951403 21.2477767,52.8371305 15.9418574,52.8430703 Z M35.3580979,44.2157076 L27.6353797,44.2157076 C27.6672933,43.8599518 27.6894451,43.5012893 27.6894451,43.1373189 C27.6894451,36.585725 22.4298318,31.2745372 15.9418574,31.2745372 C9.45388299,31.2745372 4.19426971,36.585725 4.19426971,43.1373189 C4.19426971,43.5012893 4.21642151,43.8600782 4.24833512,44.2157076 L4.0691183,44.2157076 L2.13552897,28.5942995 L14.4176383,20.9620421 C15.3680382,20.3762772 15.9461125,19.3313788 15.9418574,18.2069882 L15.9418574,3.2352926 C15.9424832,2.63992293 16.4203112,2.15740937 17.0097744,2.15690386 L37.3781669,2.15690386 C37.9680055,2.15690386 38.4460839,2.63967017 38.4460839,3.2352926 C38.4460839,3.83091502 37.9680055,4.31368133 37.3781669,4.31368133 L20.2136506,4.31368133 C19.0345991,4.3150715 18.0790681,5.27984586 18.0776914,6.47058519 L18.0776914,17.2548517 C18.0790681,18.4454647 19.0345991,19.4103654 20.2136506,19.4117556 L28.7573621,19.4117556 C29.3469504,19.4123875 29.8247785,19.8947746 29.8252791,20.4901443 L29.8252791,25.8823408 C29.8271564,27.6683234 31.2605155,29.1157377 33.0291553,29.1176334 L36.2330314,29.1176334 C38.0016712,29.1157377 39.4350303,27.6683234 39.4369076,25.8823408 L39.4369076,20.4901443 C39.4375334,19.8947746 39.9152363,19.4122611 40.5048246,19.4117556 L42.0128992,19.4117556 L46.7785398,28.0750098 C46.8663961,28.2351315 46.912577,28.4153474 46.912577,28.59847 L46.912577,29.1723553 C43.3324957,29.4511465 40.035632,31.24408 37.8350947,34.1092096 C35.6345574,36.9742128 34.7348439,40.6447534 35.3580979,44.2157076 Z M45.2226574,52.4756876 C40.5537588,51.212407 37.307206,46.9399251 37.307206,42.0588037 C37.307206,37.1776824 40.5537588,32.9052005 45.2226574,31.6419199 C49.8915561,30.3786392 54.8187672,32.4394953 57.2355661,36.6666073 L49.0486613,36.6666073 C46.0995934,36.6666073 43.708826,39.080818 43.708826,42.0588037 C43.708826,45.0367895 46.0994682,47.4510002 49.0486613,47.4510002 L57.2355661,47.4510002 C54.818642,51.6781122 49.8915561,53.7389683 45.2226574,52.4756876 Z M61.864166,45.2940963 L49.0486613,45.2940963 C47.2792706,45.2940963 45.8447851,43.845671 45.8447851,42.0588037 C45.8447851,40.2719365 47.2791455,38.8235111 49.0486613,38.8235111 L61.864166,38.8235111 L61.864166,45.2940963 L61.864166,45.2940963 Z" id="Shape" fill="#000000" fill-rule="nonzero"></path>
            </g>
        </g>
    </g>
</svg>